<svg preserveAspectRatio="none" width="100%" height="100%" overflow="visible" style="display: block;" viewBox="0 0 21.5 17.5005" fill="none" xmlns="http://www.w3.org/2000/svg">
<g id="Vector">
<path d="M13.833 7.0051C14.2446 7.05094 14.5409 7.42161 14.4951 7.83322L13.4951 16.8332C13.4493 17.2448 13.0786 17.5411 12.667 17.4953C12.2554 17.4495 11.9591 17.0788 12.0049 16.6672L13.0049 7.66721C13.0507 7.25564 13.4214 6.95936 13.833 7.0051Z" fill="var(--fill-0, white)"/>
<path d="M13.3779 0.0988463C13.7376 -0.106577 14.1959 0.0185401 14.4014 0.378143L18.4014 7.37814C18.6068 7.73777 18.4817 8.19609 18.1221 8.40158C17.7624 8.607 17.3041 8.48189 17.0986 8.12228L13.0986 1.12228C12.8932 0.762661 13.0183 0.304334 13.3779 0.0988463Z" fill="var(--fill-0, white)"/>
<path d="M20.75 7.00021C21.1642 7.00021 21.5 7.336 21.5 7.75021C21.5 8.16443 21.1642 8.50021 20.75 8.50021H0.75C0.335786 8.50021 0 8.16443 0 7.75021C0 7.336 0.335786 7.00021 0.75 7.00021H20.75Z" fill="var(--fill-0, white)"/>
<path d="M18.6191 7.58224C18.7119 7.17873 19.114 6.92631 19.5176 7.01877C19.9213 7.11151 20.1738 7.51448 20.0811 7.91818L18.3809 15.3186L18.3799 15.3176C18.2485 15.9409 17.9059 16.4995 17.4082 16.8977C16.9098 17.2964 16.2883 17.5085 15.6504 17.4992L5.84961 17.5002C5.21168 17.5095 4.59024 17.2964 4.0918 16.8977C3.5894 16.4957 3.24379 15.9305 3.11523 15.3L1.5166 7.90842C1.42929 7.50368 1.68706 7.10433 2.0918 7.01682C2.49653 6.9295 2.89589 7.18727 2.9834 7.59201L4.58301 14.9914L4.58496 15.0002C4.64338 15.2867 4.80006 15.5441 5.02832 15.7268C5.25672 15.9095 5.54253 16.0061 5.83496 16.0002H15.665C15.9575 16.0061 16.2433 15.9095 16.4717 15.7268C16.6999 15.5441 16.8566 15.2867 16.915 15.0002C16.9162 14.9943 16.9176 14.9885 16.9189 14.9826L18.6191 7.58224Z" fill="var(--fill-0, white)"/>
<path d="M18.25 11.5002C18.6642 11.5002 19 11.836 19 12.2502C19 12.6644 18.6642 13.0002 18.25 13.0002H3.25C2.83579 13.0002 2.5 12.6644 2.5 12.2502C2.5 11.836 2.83579 11.5002 3.25 11.5002H18.25Z" fill="var(--fill-0, white)"/>
<path d="M7.09863 0.378143C7.30412 0.0185401 7.76245 -0.106577 8.12207 0.0988463C8.48167 0.304334 8.60679 0.762662 8.40137 1.12228L4.40137 8.12228C4.19588 8.48189 3.73755 8.607 3.37793 8.40158C3.01833 8.19609 2.89321 7.73777 3.09863 7.37814L7.09863 0.378143Z" fill="var(--fill-0, white)"/>
<path d="M7.66699 7.0051C8.0786 6.95936 8.44927 7.25564 8.49512 7.66721L9.49512 16.6672C9.54085 17.0788 9.24458 17.4495 8.83301 17.4953C8.4214 17.5411 8.05073 17.2448 8.00488 16.8332L7.00488 7.83322C6.95915 7.42161 7.25542 7.05094 7.66699 7.0051Z" fill="var(--fill-0, white)"/>
</g>
</svg>
