<svg preserveAspectRatio="none" width="100%" height="100%" overflow="visible" style="display: block;" viewBox="0 0 464.987 470.478" fill="none" xmlns="http://www.w3.org/2000/svg">
<g id="Vector">
<path d="M223.523 0H228.794C236.266 4.19674 240.178 11.3969 231.714 17.8604C226.578 21.7821 217.248 18.6996 216.63 11.6309C216.084 5.38651 218.156 3.08264 223.523 0Z" fill="var(--fill-0, #EDEDED)"/>
<path d="M368.93 76.8552C374.353 75.7421 379.653 79.2288 380.771 84.6447C381.89 90.0606 378.403 95.3568 372.982 96.4781C367.555 97.6002 362.246 94.1131 361.126 88.6919C360.007 83.2702 363.502 77.9695 368.93 76.8552Z" fill="var(--fill-0, #EDEDED)"/>
<path d="M146.722 338.707C152.256 338.138 157.196 342.179 157.727 347.71C158.259 353.242 154.18 358.148 148.638 358.641C143.151 359.129 138.297 355.102 137.77 349.625C137.244 344.147 141.241 339.271 146.722 338.707Z" fill="var(--fill-0, #EDEDED)"/>
<path d="M102.629 328.37C108.056 327.849 112.892 331.789 113.472 337.204C114.052 342.619 110.161 347.492 104.747 348.13C101.947 348.46 99.138 347.588 97.0184 345.731C94.8992 343.874 93.6684 341.205 93.6323 338.389C93.5655 333.22 97.4777 328.863 102.629 328.37Z" fill="var(--fill-0, #EDEDED)"/>
<path d="M376.569 379.604C381.952 378.73 387.036 382.349 387.964 387.717C388.893 393.085 385.319 398.198 379.955 399.178C374.515 400.172 369.309 396.543 368.367 391.099C367.425 385.656 371.111 380.491 376.569 379.604Z" fill="var(--fill-0, #EDEDED)"/>
<path d="M97.7527 191.561C103.051 190.225 108.435 193.413 109.804 198.697C111.173 203.981 108.013 209.378 102.73 210.776C97.4049 212.186 91.9476 208.998 90.567 203.669C89.1869 198.342 92.4106 192.909 97.7527 191.561Z" fill="var(--fill-0, #EDEDED)"/>
<path d="M270.703 3.87731C275.949 2.40091 281.404 5.4321 282.914 10.6628C284.425 15.8934 281.424 21.3609 276.197 22.9019C270.923 24.4564 265.392 21.4269 263.868 16.1504C262.344 10.8738 265.411 5.36667 270.703 3.87731Z" fill="var(--fill-0, #EDEDED)"/>
<path d="M282.897 407.446C288.19 406.365 293.367 409.743 294.505 415.016C295.643 420.293 292.318 425.5 287.049 426.692C283.591 427.474 279.978 426.343 277.588 423.726C275.199 421.108 274.401 417.408 275.5 414.041C276.597 410.673 279.422 408.155 282.897 407.446Z" fill="var(--fill-0, #EDEDED)"/>
<path d="M309.127 119.452C314.415 118.577 319.43 122.093 320.404 127.358C321.378 132.623 317.952 137.697 312.7 138.767C309.215 139.477 305.617 138.253 303.292 135.564C300.967 132.876 300.276 129.142 301.486 125.801C302.696 122.461 305.618 120.032 309.127 119.452Z" fill="var(--fill-0, #EDEDED)"/>
<path d="M235.314 46.9667C240.699 46.6652 245.309 50.7803 245.613 56.1593C245.916 61.538 241.798 66.1447 236.413 66.4499C231.026 66.7552 226.411 62.6392 226.107 57.2577C225.804 51.8762 229.926 47.2678 235.314 46.9667Z" fill="var(--fill-0, #EDEDED)"/>
<path d="M102.445 131.672C105.794 130.626 109.447 131.459 112.009 133.853C114.57 136.248 115.646 139.833 114.823 143.24C114.001 146.647 111.408 149.349 108.035 150.313C102.906 151.78 97.5508 148.855 96.0205 143.75C94.4899 138.646 97.3539 133.262 102.445 131.672Z" fill="var(--fill-0, #EDEDED)"/>
<path d="M90.3819 151.388C93.2775 150.679 96.3391 151.337 98.6868 153.173C101.034 155.008 102.409 157.819 102.415 160.797C102.425 165.303 99.3299 169.222 94.9414 170.264C92.0106 170.959 88.9226 170.258 86.5812 168.365C84.2397 166.472 82.9088 163.602 82.9785 160.593C83.0798 156.206 86.1148 152.433 90.3819 151.388Z" fill="var(--fill-0, #EDEDED)"/>
<path d="M377.413 53.5174C382.611 52.6591 387.521 56.1721 388.38 61.3639C389.24 66.5557 385.724 71.4607 380.526 72.3198C375.328 73.1789 370.417 69.6659 369.557 64.4737C368.697 59.2811 372.214 54.3761 377.413 53.5174Z" fill="var(--fill-0, #EDEDED)"/>
<path d="M86.759 412.312C90.1471 411.833 93.5303 413.214 95.6147 415.921C97.699 418.634 98.1624 422.255 96.827 425.401C95.4916 428.548 92.564 430.731 89.1648 431.12C84.0049 431.71 79.3285 428.048 78.6706 422.902C78.0124 417.757 81.6162 413.037 86.759 412.312Z" fill="var(--fill-0, #EDEDED)"/>
<path d="M365.04 146.045C370.057 144.659 375.251 147.593 376.647 152.601C378.044 157.61 375.116 162.803 370.104 164.207C365.079 165.615 359.865 162.681 358.465 157.66C357.064 152.638 360.01 147.434 365.04 146.045Z" fill="var(--fill-0, #EDEDED)"/>
<path d="M359.938 38.7428C363.336 38.5185 366.59 40.1418 368.452 42.9892C370.315 45.8369 370.495 49.4662 368.924 52.4838C367.353 55.5015 364.275 57.4384 360.871 57.5507C355.728 57.7207 351.398 53.7395 351.144 48.605C350.889 43.471 354.803 39.0817 359.938 38.7428Z" fill="var(--fill-0, #EDEDED)"/>
<path d="M48.524 268.544C53.4539 267.173 58.5634 270.053 59.9365 274.978C61.3096 279.901 58.4272 285.006 53.4977 286.378C48.5671 287.751 43.4564 284.87 42.0828 279.945C40.7093 275.02 43.5933 269.916 48.524 268.544Z" fill="var(--fill-0, #EDEDED)"/>
<path d="M63.31 357.079C66.502 356.149 69.9484 357.006 72.3313 359.323C74.7142 361.639 75.6649 365.057 74.8205 368.27C73.976 371.482 71.4664 373.993 68.2513 374.841C63.3682 376.129 58.3551 373.258 57.0029 368.396C55.6502 363.536 58.4613 358.492 63.31 357.079Z" fill="var(--fill-0, #EDEDED)"/>
<path d="M274.734 435.377C279.761 435.053 284.119 438.818 284.521 443.833C284.923 448.847 281.22 453.259 276.206 453.739C272.893 454.054 269.668 452.559 267.765 449.834C265.863 447.106 265.579 443.566 267.023 440.572C268.466 437.577 271.414 435.594 274.734 435.377Z" fill="var(--fill-0, #EDEDED)"/>
<path d="M388.792 139.895C391.984 139.016 395.403 139.918 397.744 142.258C400.083 144.597 400.986 148.013 400.104 151.201C399.225 154.39 396.696 156.859 393.485 157.667C388.596 158.898 383.625 155.969 382.34 151.099C381.054 146.229 383.931 141.233 388.792 139.895Z" fill="var(--fill-0, #EDEDED)"/>
<path d="M395.924 69.0371C400.813 68.4427 405.3 71.8172 406.08 76.6763C406.859 81.5355 403.647 86.1394 398.817 87.0984C395.526 87.7519 392.141 86.556 389.993 83.9812C387.845 81.4064 387.278 77.8648 388.514 74.7492C389.751 71.6337 392.593 69.4423 395.924 69.0371Z" fill="var(--fill-0, #EDEDED)"/>
<path d="M257.73 50.6218C262.576 49.7484 267.22 52.9459 268.127 57.7809C269.033 62.6159 265.863 67.2755 261.029 68.2132C256.148 69.16 251.43 65.9567 250.515 61.0759C249.599 56.1954 252.837 51.5035 257.73 50.6218Z" fill="var(--fill-0, #EDEDED)"/>
<path d="M120.627 115.304C125.506 114.569 130.06 117.918 130.807 122.79C131.553 127.663 128.21 132.219 123.334 132.975C118.443 133.734 113.864 130.382 113.116 125.495C112.367 120.607 115.732 116.041 120.627 115.304Z" fill="var(--fill-0, #EDEDED)"/>
<path d="M296.179 85.3907C301.054 84.6893 305.577 88.0622 306.289 92.9299C307.002 97.7977 303.635 102.322 298.764 103.045C293.877 103.769 289.33 100.394 288.615 95.5113C287.9 90.6284 291.29 86.0937 296.179 85.3907Z" fill="var(--fill-0, #EDEDED)"/>
<path d="M429.995 176.758C432.657 176.091 435.474 176.685 437.64 178.369C439.801 180.053 441.069 182.638 441.073 185.378C441.077 189.434 438.337 192.981 434.404 194.002C429.63 195.242 424.753 192.367 423.531 187.592C422.309 182.816 425.209 177.958 429.995 176.758Z" fill="var(--fill-0, #EDEDED)"/>
<path d="M40.2935 316.889C45.1442 316.181 49.6495 319.54 50.3488 324.387C51.0485 329.234 47.6768 333.727 42.8232 334.417C37.9828 335.104 33.4996 331.747 32.8019 326.914C32.1043 322.081 35.4559 317.596 40.2935 316.889Z" fill="var(--fill-0, #EDEDED)"/>
<path d="M384.108 278.699C387.236 278.066 390.463 279.166 392.552 281.579C394.64 283.99 395.265 287.339 394.186 290.34C393.108 293.342 390.494 295.529 387.347 296.064C382.585 296.874 378.054 293.717 377.169 288.974C376.285 284.231 379.374 279.657 384.108 278.699Z" fill="var(--fill-0, #EDEDED)"/>
<path d="M260.394 413.603C265.196 412.734 269.791 415.93 270.644 420.727C271.497 425.528 268.282 430.108 263.474 430.94C258.691 431.772 254.136 428.58 253.287 423.808C252.439 419.031 255.617 414.471 260.394 413.603Z" fill="var(--fill-0, #EDEDED)"/>
<path d="M196.031 99.338C199.111 98.4908 202.409 99.3753 204.65 101.65C206.891 103.924 207.724 107.232 206.827 110.295C205.929 113.358 203.442 115.696 200.328 116.405C195.658 117.467 190.993 114.609 189.825 109.97C188.657 105.33 191.413 100.608 196.031 99.338Z" fill="var(--fill-0, #EDEDED)"/>
<path d="M25.6785 341.492C28.7487 340.624 32.049 341.482 34.3056 343.735C36.5621 345.989 37.4222 349.285 36.5535 352.352C35.6853 355.419 33.224 357.777 30.1201 358.516C25.4583 359.625 20.7637 356.808 19.5551 352.176C18.3465 347.544 21.0675 342.797 25.6785 341.492Z" fill="var(--fill-0, #EDEDED)"/>
<path d="M391.26 232.53C394.319 231.716 397.581 232.61 399.797 234.87C402.011 237.131 402.836 240.407 401.954 243.445C401.076 246.483 398.626 248.812 395.545 249.542C390.872 250.648 386.176 247.799 385.004 243.147C383.832 238.495 386.619 233.765 391.26 232.53Z" fill="var(--fill-0, #EDEDED)"/>
<path d="M443.997 324.246C447.139 323.854 450.243 325.203 452.097 327.765C453.955 330.327 454.263 333.695 452.905 336.552C451.548 339.409 448.742 341.3 445.58 341.485C440.913 341.76 436.865 338.285 436.438 333.631C436.012 328.978 439.354 324.825 443.997 324.246Z" fill="var(--fill-0, #EDEDED)"/>
<path d="M107.418 369.269C112.144 368.526 116.578 371.753 117.318 376.475C118.058 381.197 114.823 385.623 110.095 386.357C105.373 387.091 100.949 383.865 100.21 379.149C99.4717 374.433 102.697 370.011 107.418 369.269Z" fill="var(--fill-0, #EDEDED)"/>
<path d="M174.034 107.969C178.562 106.688 183.274 109.305 184.573 113.823C185.872 118.34 183.268 123.057 178.75 124.37C176.197 125.111 173.445 124.624 171.304 123.052C169.163 121.479 167.876 119 167.824 116.346C167.747 112.469 170.299 109.027 174.034 107.969Z" fill="var(--fill-0, #EDEDED)"/>
<path d="M362.397 196.033C366.919 194.659 371.697 197.223 373.046 201.748C374.396 206.272 371.803 211.03 367.265 212.353C362.763 213.665 358.046 211.1 356.707 206.61C355.368 202.122 357.91 197.395 362.397 196.033Z" fill="var(--fill-0, #EDEDED)"/>
<path d="M89.9854 352.896C94.5609 351.747 99.1992 354.531 100.332 359.105C101.464 363.68 98.6602 368.302 94.077 369.417C89.5171 370.526 84.9186 367.742 83.7915 363.192C82.6649 358.642 85.4341 354.038 89.9854 352.896Z" fill="var(--fill-0, #EDEDED)"/>
<path d="M266.183 100.16C269.125 99.2539 272.327 100.006 274.556 102.126C276.785 104.247 277.693 107.404 276.931 110.383C276.169 113.362 273.855 115.697 270.881 116.489C266.403 117.681 261.794 115.074 260.514 110.626C259.235 106.177 261.755 101.524 266.183 100.16Z" fill="var(--fill-0, #EDEDED)"/>
<path d="M343.963 87.0228C348.615 86.2055 353.041 89.335 353.816 93.9893C354.59 98.6436 351.416 103.035 346.749 103.765C342.144 104.485 337.819 101.365 337.054 96.7722C336.29 92.1794 339.373 87.8294 343.963 87.0228Z" fill="var(--fill-0, #EDEDED)"/>
<path d="M167.051 405.404C171.554 404.274 176.123 406.994 177.27 411.489C178.417 415.979 175.71 420.555 171.216 421.714C166.7 422.882 162.093 420.161 160.94 415.647C159.786 411.132 162.526 406.539 167.051 405.404Z" fill="var(--fill-0, #EDEDED)"/>
<path d="M164.53 61.2222C169.007 60.0591 173.579 62.742 174.742 67.2136C175.904 71.6856 173.216 76.2519 168.738 77.4108C164.264 78.569 159.696 75.886 158.535 71.4169C157.373 66.9482 160.057 62.3844 164.53 61.2222Z" fill="var(--fill-0, #EDEDED)"/>
<path d="M164.764 354.155C169.064 352.824 173.629 355.23 174.958 359.526C176.286 363.822 173.875 368.38 169.573 369.704C165.276 371.027 160.718 368.621 159.39 364.33C158.063 360.038 160.468 355.484 164.764 354.155Z" fill="var(--fill-0, #EDEDED)"/>
<path d="M31.7558 295.581C34.6128 294.836 37.6499 295.698 39.6874 297.833C41.7254 299.967 42.4431 303.038 41.5621 305.854C40.6812 308.669 38.3401 310.785 35.4478 311.381C31.134 312.269 26.8973 309.562 25.896 305.277C24.8947 300.993 27.4938 296.692 31.7558 295.581Z" fill="var(--fill-0, #EDEDED)"/>
<path d="M29.191 179.608C33.481 178.593 37.7916 181.205 38.8747 185.473C39.9579 189.741 37.413 194.088 33.1574 195.238C30.3439 195.998 27.3388 195.184 25.295 193.109C23.2511 191.033 22.4861 188.018 23.2933 185.221C24.1006 182.423 26.3548 180.278 29.191 179.608Z" fill="var(--fill-0, #EDEDED)"/>
<path d="M76.2306 334.452C80.4279 333.337 84.7438 335.795 85.9209 339.971C87.0984 344.147 84.7007 348.493 80.5374 349.73C77.7899 350.546 74.8156 349.821 72.7534 347.832C70.6912 345.843 69.8611 342.899 70.5813 340.128C71.3015 337.357 73.4601 335.187 76.2306 334.452Z" fill="var(--fill-0, #EDEDED)"/>
<path d="M388.963 401.63C393.229 400.581 397.535 403.198 398.562 407.464C399.587 411.73 396.945 416.02 392.669 417.019C388.425 418.015 384.173 415.401 383.154 411.165C382.134 406.933 384.73 402.672 388.963 401.63Z" fill="var(--fill-0, #EDEDED)"/>
<path d="M385.166 189.729C389.392 188.768 393.598 191.412 394.558 195.634C395.518 199.857 392.868 204.056 388.641 205.013C384.416 205.969 380.216 203.325 379.256 199.106C378.297 194.887 380.942 190.689 385.166 189.729Z" fill="var(--fill-0, #EDEDED)"/>
<path d="M413.401 134.144C417.662 133.575 421.587 136.539 422.202 140.79C422.818 145.041 419.893 148.994 415.644 149.653C412.855 150.087 410.046 148.99 408.295 146.781C406.539 144.572 406.109 141.592 407.163 138.977C408.221 136.363 410.604 134.517 413.401 134.144Z" fill="var(--fill-0, #EDEDED)"/>
<path d="M155.856 375.882C159.995 375.111 163.997 377.768 164.889 381.878C165.781 385.988 163.24 390.062 159.153 391.073C156.401 391.754 153.495 390.886 151.569 388.808C149.643 386.73 149 383.769 149.892 381.081C150.784 378.392 153.068 376.4 155.856 375.882Z" fill="var(--fill-0, #EDEDED)"/>
<path d="M226.785 72.6592C230.885 71.6858 235.011 74.1668 236.068 78.2414C237.125 82.316 234.725 86.4865 230.668 87.6246C227.969 88.3813 225.073 87.6221 223.094 85.6397C221.115 83.6573 220.364 80.7613 221.13 78.0685C221.895 75.3758 224.058 73.3065 226.785 72.6592Z" fill="var(--fill-0, #EDEDED)"/>
<path d="M338.286 29.3081C340.49 28.8625 342.778 29.3967 344.556 30.7717C346.334 32.1467 347.425 34.2263 347.545 36.4691C347.748 40.2676 345.153 43.6486 341.428 44.4393C337.235 45.3287 333.117 42.6429 332.247 38.4504C331.376 34.258 334.085 30.1578 338.286 29.3081Z" fill="var(--fill-0, #EDEDED)"/>
<path d="M24.574 203.007C28.6147 202.055 32.6757 204.505 33.7133 208.521C34.7506 212.536 32.3837 216.643 28.3865 217.763C25.7252 218.509 22.8683 217.759 20.9183 215.802C18.9682 213.845 18.23 210.988 18.9886 208.334C19.7471 205.679 21.8838 203.641 24.574 203.007Z" fill="var(--fill-0, #EDEDED)"/>
<path d="M236.467 417.626C239.133 416.897 241.984 417.667 243.917 419.637C245.85 421.612 246.561 424.475 245.775 427.122C244.988 429.768 242.828 431.78 240.131 432.382C236.096 433.279 232.083 430.797 231.088 426.79C230.093 422.779 232.481 418.715 236.467 417.626Z" fill="var(--fill-0, #EDEDED)"/>
<path d="M116.872 348.436C119.429 347.468 122.309 347.952 124.407 349.702C126.506 351.453 127.497 354.197 127 356.882C126.503 359.568 124.595 361.777 122.008 362.661C118.097 363.999 113.836 361.957 112.434 358.073C111.032 354.189 113.007 349.899 116.872 348.436Z" fill="var(--fill-0, #EDEDED)"/>
<path d="M323.418 75.5148C326.027 74.7725 328.833 75.489 330.765 77.3903C332.697 79.292 333.455 82.0843 332.751 84.7005C332.046 87.3163 329.987 89.3519 327.361 90.0287C323.371 91.057 319.294 88.6891 318.215 84.7165C317.136 80.7439 319.455 76.6422 323.418 75.5148Z" fill="var(--fill-0, #EDEDED)"/>
<path d="M127.168 53.4678C131.133 52.2174 135.359 54.4272 136.589 58.3941C137.82 62.3605 135.585 66.5699 131.607 67.7773C127.66 68.976 123.484 66.7641 122.263 62.8276C121.042 58.891 123.234 54.7087 127.168 53.4678Z" fill="var(--fill-0, #EDEDED)"/>
<path d="M128.387 325.904C132.329 324.868 136.369 327.204 137.432 331.134C138.495 335.065 136.182 339.115 132.253 340.202C128.29 341.298 124.19 338.962 123.118 334.996C122.046 331.03 124.41 326.95 128.387 325.904Z" fill="var(--fill-0, #EDEDED)"/>
<path d="M352.139 128.838C356.08 127.901 360.044 130.302 361.033 134.226C362.022 138.151 359.671 142.141 355.755 143.18C353.177 143.865 350.429 143.111 348.562 141.206C346.696 139.301 346 136.541 346.74 133.98C347.481 131.42 349.543 129.455 352.139 128.838Z" fill="var(--fill-0, #EDEDED)"/>
<path d="M134.904 134.537C138.795 133.399 142.877 135.601 144.059 139.474C145.241 143.347 143.083 147.449 139.219 148.673C136.68 149.476 133.906 148.855 131.954 147.048C130.001 145.239 129.172 142.523 129.783 139.934C130.393 137.345 132.349 135.284 134.904 134.537Z" fill="var(--fill-0, #EDEDED)"/>
<path d="M248.291 3.85081C252.217 2.99539 256.102 5.45101 257.009 9.36123C257.917 13.2714 255.509 17.1838 251.606 18.1405C249.036 18.7706 246.326 17.9708 244.511 16.047C242.696 14.1233 242.059 11.3731 242.841 8.84815C243.623 6.32325 245.706 4.41409 248.291 3.85081Z" fill="var(--fill-0, #EDEDED)"/>
<path d="M317.965 19.037C321.97 18.609 325.572 21.4827 326.04 25.4782C326.507 29.4737 323.666 33.0998 319.671 33.606C315.62 34.1191 311.928 31.2325 311.454 27.1814C310.979 23.1302 313.905 19.4709 317.965 19.037Z" fill="var(--fill-0, #EDEDED)"/>
<path d="M22.6291 226.772C26.5807 226.049 30.3683 228.671 31.077 232.621C31.7858 236.571 29.1462 240.344 25.1892 241.037C21.2532 241.727 17.5001 239.107 16.795 235.178C16.09 231.249 18.6984 227.491 22.6291 226.772Z" fill="var(--fill-0, #EDEDED)"/>
<path d="M302.825 64.9213C306.673 63.9553 310.583 66.2593 311.598 70.0902C312.613 73.9214 310.356 77.8559 306.534 78.9178C304.018 79.6167 301.321 78.91 299.472 77.0681C297.624 75.2258 296.91 72.533 297.604 70.0185C298.298 67.5043 300.292 65.5571 302.825 64.9213Z" fill="var(--fill-0, #EDEDED)"/>
<path d="M25.9498 273.804C29.8093 273.113 33.507 275.653 34.2412 279.501C34.9753 283.348 32.4718 287.069 28.628 287.843C26.1045 288.352 23.5021 287.467 21.8134 285.526C20.1246 283.585 19.61 280.888 20.4658 278.463C21.3216 276.037 23.4159 274.259 25.9498 273.804Z" fill="var(--fill-0, #EDEDED)"/>
<path d="M8.38561 299.678C10.8939 299.01 13.5677 299.756 15.3651 301.628C17.1624 303.499 17.799 306.198 17.0268 308.674C16.2545 311.149 14.1956 313.01 11.6523 313.53C7.8763 314.302 4.16981 311.936 3.28604 308.188C2.40228 304.441 4.66152 300.671 8.38561 299.678Z" fill="var(--fill-0, #EDEDED)"/>
<path d="M220.969 97.7411C224.733 97.2872 228.167 99.9288 228.689 103.679C229.211 107.43 226.628 110.906 222.883 111.495C220.4 111.885 217.9 110.906 216.343 108.935C214.787 106.963 214.417 104.306 215.377 101.985C216.336 99.6649 218.474 98.0418 220.969 97.7411Z" fill="var(--fill-0, #EDEDED)"/>
<path d="M88.3882 311.993C90.685 311.083 93.2939 311.479 95.217 313.029C97.1402 314.578 98.079 317.042 97.6742 319.476C97.2694 321.911 95.5841 323.939 93.2627 324.785C89.7429 326.067 85.8446 324.288 84.5116 320.79C83.1787 317.292 84.9054 313.374 88.3882 311.993Z" fill="var(--fill-0, #EDEDED)"/>
<path d="M391.317 214.066C395.012 214.14 397.978 217.136 398.011 220.828C398.045 224.519 395.133 227.568 391.44 227.709C388.953 227.804 386.611 226.541 385.327 224.412C384.042 222.283 384.018 219.624 385.264 217.472C386.51 215.32 388.829 214.015 391.317 214.066Z" fill="var(--fill-0, #EDEDED)"/>
<path d="M223.8 394.764C227.406 393.984 230.975 396.223 231.838 399.805C232.701 403.388 230.541 407.003 226.975 407.947C224.595 408.576 222.06 407.869 220.35 406.099C218.641 404.328 218.026 401.772 218.742 399.419C219.458 397.066 221.394 395.284 223.8 394.764Z" fill="var(--fill-0, #EDEDED)"/>
<path d="M52.4469 382.397C54.8113 381.692 57.3718 382.326 59.1329 384.051C60.8945 385.777 61.5786 388.322 60.9195 390.697C60.2604 393.071 58.3619 394.901 55.9626 395.474C52.3911 396.327 48.7889 394.186 47.8365 390.643C46.8846 387.101 48.9283 383.445 52.4469 382.397Z" fill="var(--fill-0, #EDEDED)"/>
<path d="M399.632 163.248C401.949 162.461 404.517 162.986 406.338 164.622C408.159 166.257 408.955 168.749 408.417 171.137C407.88 173.524 406.092 175.435 403.746 176.133C400.21 177.185 396.481 175.217 395.36 171.706C394.24 168.195 396.139 164.434 399.632 163.248Z" fill="var(--fill-0, #EDEDED)"/>
<path d="M250.922 75.4841C254.608 74.85 258.111 77.3215 258.745 81.0037C259.378 84.6862 256.903 88.184 253.216 88.8157C249.531 89.4475 246.031 86.9759 245.398 83.2954C244.765 79.6145 247.238 76.1175 250.922 75.4841Z" fill="var(--fill-0, #EDEDED)"/>
<path d="M46.0219 247.658C48.3388 246.84 50.9177 247.34 52.7588 248.966C54.5999 250.592 55.4132 253.087 54.8837 255.485C54.3538 257.882 52.5644 259.803 50.2094 260.504C46.6925 261.55 42.9816 259.606 41.8455 256.12C40.7094 252.635 42.5624 248.881 46.0219 247.658Z" fill="var(--fill-0, #EDEDED)"/>
<path d="M171.392 457.278C174.945 457.126 177.982 459.81 178.265 463.349C178.548 466.889 175.977 470.019 172.444 470.433C170.041 470.715 167.675 469.662 166.278 467.688C164.88 465.717 164.674 463.136 165.74 460.965C166.806 458.798 168.974 457.38 171.392 457.278Z" fill="var(--fill-0, #EDEDED)"/>
<path d="M178.206 9.23178C181.718 8.52177 185.15 10.7546 185.92 14.2492C186.69 17.7439 184.514 21.21 181.028 22.0382C178.721 22.5866 176.297 21.849 174.687 20.1089C173.078 18.3688 172.533 15.8967 173.262 13.6423C173.991 11.3879 175.882 9.70184 178.206 9.23178Z" fill="var(--fill-0, #EDEDED)"/>
<path d="M405.284 385.698C408.803 384.849 412.343 387.014 413.183 390.531C414.028 394.047 411.85 397.578 408.327 398.412C404.817 399.243 401.298 397.078 400.457 393.573C399.616 390.067 401.777 386.545 405.284 385.698Z" fill="var(--fill-0, #EDEDED)"/>
<path d="M305.147 402.948C308.594 401.865 312.265 403.788 313.334 407.235C314.403 410.682 312.462 414.34 309.005 415.393C305.571 416.442 301.936 414.516 300.874 411.091C299.811 407.663 301.722 404.024 305.147 402.948Z" fill="var(--fill-0, #EDEDED)"/>
<path d="M105.587 99.7438C107.873 99.2755 110.234 100.07 111.77 101.825C113.305 103.58 113.778 106.024 113.008 108.224C112.238 110.424 110.343 112.041 108.047 112.458C104.553 113.091 101.199 110.798 100.525 107.315C99.8505 103.832 102.108 100.456 105.587 99.7438Z" fill="var(--fill-0, #EDEDED)"/>
<path d="M136.554 419.645C138.808 419.248 141.1 420.108 142.538 421.886C143.977 423.664 144.335 426.081 143.474 428.199C142.613 430.317 140.669 431.8 138.397 432.075C135.013 432.48 131.92 430.125 131.421 426.757C130.922 423.39 133.198 420.235 136.554 419.645Z" fill="var(--fill-0, #EDEDED)"/>
<path d="M370.259 418.551C373.432 417.253 377.059 418.76 378.374 421.923C379.69 425.086 378.198 428.715 375.038 430.043C371.857 431.378 368.195 429.879 366.871 426.696C365.547 423.513 367.067 419.862 370.259 418.551Z" fill="var(--fill-0, #EDEDED)"/>
<path d="M392.559 365.304C395.958 364.826 399.102 367.19 399.583 370.584C400.063 373.979 397.702 377.121 394.303 377.605C390.901 378.09 387.75 375.725 387.268 372.327C386.786 368.928 389.156 365.783 392.559 365.304Z" fill="var(--fill-0, #EDEDED)"/>
<path d="M115.045 408.655C117.198 407.987 119.544 408.537 121.174 410.092C122.804 411.649 123.461 413.967 122.89 416.143C122.319 418.322 120.61 420.022 118.426 420.579C115.166 421.411 111.834 419.498 110.917 416.261C110 413.029 111.831 409.654 115.045 408.655Z" fill="var(--fill-0, #EDEDED)"/>
<path d="M189.665 415.2C191.809 414.532 194.148 415.081 195.768 416.638C197.388 418.191 198.032 420.506 197.447 422.673C196.862 424.84 195.143 426.515 192.96 427.048C189.73 427.835 186.459 425.917 185.569 422.718C184.679 419.518 186.492 416.192 189.665 415.2Z" fill="var(--fill-0, #EDEDED)"/>
<path d="M105.172 429.961C107.292 429.334 109.585 429.899 111.172 431.436C112.759 432.972 113.395 435.242 112.834 437.376C112.274 439.515 110.605 441.182 108.468 441.743C105.232 442.591 101.913 440.69 101.013 437.474C100.113 434.254 101.965 430.911 105.172 429.961Z" fill="var(--fill-0, #EDEDED)"/>
<path d="M432.973 347.542C436.27 347.08 439.334 349.338 439.863 352.623C440.392 355.908 438.194 359.011 434.917 359.605C432.735 360.001 430.512 359.189 429.105 357.482C427.694 355.775 427.317 353.441 428.121 351.379C428.925 349.317 430.778 347.849 432.973 347.542Z" fill="var(--fill-0, #EDEDED)"/>
<path d="M360.325 105.9C362.39 105.112 364.721 105.503 366.415 106.922C368.11 108.341 368.902 110.566 368.484 112.735C368.066 114.905 366.504 116.677 364.403 117.367C361.26 118.399 357.867 116.737 356.759 113.623C355.651 110.509 357.234 107.081 360.325 105.9Z" fill="var(--fill-0, #EDEDED)"/>
<path d="M138.881 103.428C141.019 102.965 143.241 103.689 144.694 105.323C146.147 106.956 146.605 109.246 145.892 111.312C145.18 113.378 143.407 114.899 141.255 115.292C138.003 115.886 134.874 113.765 134.226 110.526C133.578 107.287 135.65 104.128 138.881 103.428Z" fill="var(--fill-0, #EDEDED)"/>
<path d="M187.333 55.5652C189.458 54.9835 191.732 55.6091 193.258 57.1962C194.785 58.7832 195.321 61.0774 194.654 63.1749C193.987 65.2729 192.225 66.8387 190.062 67.2557C186.89 67.8669 183.8 65.8653 183.067 62.7218C182.333 59.5788 184.217 56.4186 187.333 55.5652Z" fill="var(--fill-0, #EDEDED)"/>
<path d="M204.646 76.9134C207.863 76.6569 210.707 78.9871 211.084 82.1879C211.461 85.3891 209.237 88.315 206.048 88.8111C203.877 89.1491 201.694 88.2748 200.359 86.5317C199.023 84.7885 198.748 82.4554 199.642 80.4501C200.536 78.4451 202.456 77.0883 204.646 76.9134Z" fill="var(--fill-0, #EDEDED)"/>
<path d="M288.883 111.65C290.983 111.077 293.229 111.685 294.753 113.239C296.275 114.793 296.836 117.049 296.218 119.134C295.599 121.219 293.898 122.806 291.774 123.281C288.593 123.992 285.426 122.036 284.64 118.876C283.855 115.716 285.739 112.508 288.883 111.65Z" fill="var(--fill-0, #EDEDED)"/>
<path d="M325.468 392.29C327.504 391.478 329.821 391.84 331.511 393.236C333.202 394.63 333.994 396.836 333.579 398.986C333.164 401.137 331.607 402.889 329.519 403.557C326.443 404.54 323.14 402.913 322.048 399.877C320.957 396.841 322.468 393.486 325.468 392.29Z" fill="var(--fill-0, #EDEDED)"/>
<path d="M158.04 91.1673C161.084 90.0353 164.47 91.5786 165.61 94.6171C166.748 97.6553 165.21 101.041 162.17 102.185C159.123 103.332 155.722 101.79 154.579 98.7429C153.437 95.6962 154.987 92.3021 158.04 91.1673Z" fill="var(--fill-0, #EDEDED)"/>
<path d="M80.3822 291.14C83.5288 290.57 86.5491 292.635 87.1557 295.771C87.7627 298.908 85.7308 301.948 82.5982 302.591C80.5393 303.013 78.4119 302.297 77.0285 300.717C75.6447 299.136 75.219 296.934 75.913 294.952C76.6069 292.971 78.3139 291.515 80.3822 291.14Z" fill="var(--fill-0, #EDEDED)"/>
<path d="M199.685 393.479C201.6 392.727 203.772 393.067 205.364 394.37C206.956 395.673 207.718 397.734 207.356 399.757C206.993 401.781 205.564 403.45 203.618 404.121C200.698 405.129 197.507 403.619 196.436 400.724C195.366 397.828 196.809 394.609 199.685 393.479Z" fill="var(--fill-0, #EDEDED)"/>
<path d="M243.546 99.7463C246.497 98.7975 249.661 100.408 250.627 103.35C251.593 106.292 249.998 109.462 247.057 110.442C244.094 111.431 240.892 109.823 239.918 106.858C238.945 103.893 240.572 100.702 243.546 99.7463Z" fill="var(--fill-0, #EDEDED)"/>
<path d="M357.848 399.269C359.745 398.521 361.899 398.87 363.461 400.18C365.023 401.489 365.742 403.547 365.335 405.543C364.927 407.538 363.458 409.151 361.508 409.744C358.654 410.612 355.624 409.075 354.641 406.262C353.658 403.449 355.074 400.363 357.848 399.269Z" fill="var(--fill-0, #EDEDED)"/>
<path d="M402.241 116.146C405.23 115.993 407.782 118.269 407.97 121.249C408.155 124.23 405.907 126.807 402.926 127.029C400.965 127.175 399.079 126.257 397.985 124.626C396.891 122.995 396.76 120.902 397.641 119.147C398.522 117.392 400.28 116.245 402.241 116.146Z" fill="var(--fill-0, #EDEDED)"/>
<path d="M335.974 114.132C338.793 113.501 341.6 115.234 342.296 118.034C342.991 120.835 341.32 123.678 338.533 124.436C336.673 124.941 334.684 124.402 333.336 123.025C331.988 121.649 331.492 119.651 332.04 117.805C332.588 115.958 334.093 114.553 335.974 114.132Z" fill="var(--fill-0, #EDEDED)"/>
<path d="M318.093 424.283C320.835 423.259 323.887 424.664 324.888 427.409C325.89 430.158 324.456 433.193 321.696 434.168C318.972 435.131 315.978 433.722 314.99 431.01C314.001 428.298 315.386 425.295 318.093 424.283Z" fill="var(--fill-0, #EDEDED)"/>
<path d="M316.631 100.603C319.456 99.8436 322.359 101.532 323.093 104.361C323.827 107.189 322.111 110.074 319.272 110.781C316.47 111.479 313.628 109.791 312.903 106.999C312.179 104.206 313.842 101.352 316.631 100.603Z" fill="var(--fill-0, #EDEDED)"/>
<path d="M451.248 305.382C454.033 304.709 456.842 306.404 457.539 309.181C458.237 311.958 456.563 314.779 453.791 315.5C450.981 316.23 448.119 314.534 447.409 311.722C446.704 308.912 448.426 306.064 451.248 305.382Z" fill="var(--fill-0, #EDEDED)"/>
<path d="M148.503 451.702C151.35 451.387 153.916 453.435 154.237 456.278C154.559 459.121 152.514 461.69 149.668 462.014C146.813 462.341 144.234 460.293 143.912 457.442C143.59 454.59 145.647 452.018 148.503 451.702Z" fill="var(--fill-0, #EDEDED)"/>
<path d="M411.538 91.2066C414.299 90.9268 416.78 92.9027 417.116 95.6537C417.453 98.4046 415.529 100.92 412.781 101.315C410.952 101.578 409.127 100.833 408.003 99.3674C406.883 97.9011 406.641 95.9441 407.376 94.2505C408.11 92.5573 409.701 91.3926 411.538 91.2066Z" fill="var(--fill-0, #EDEDED)"/>
<path d="M202.769 7.22677C205.367 7.20146 207.544 9.18309 207.759 11.7691C207.975 14.3551 206.155 16.6689 203.589 17.0727C201.753 17.3617 199.91 16.601 198.813 15.1021C197.717 13.6033 197.552 11.6179 198.385 9.95864C199.218 8.29938 200.911 7.24488 202.769 7.22677Z" fill="var(--fill-0, #EDEDED)"/>
<path d="M407.655 187.443C409.279 186.667 411.194 186.838 412.654 187.89C414.114 188.94 414.881 190.703 414.656 192.486C414.43 194.269 413.249 195.786 411.576 196.444C409.115 197.411 406.326 196.257 405.268 193.832C404.214 191.408 405.268 188.584 407.655 187.443Z" fill="var(--fill-0, #EDEDED)"/>
<path d="M125.417 387.763C127.037 387.081 128.9 387.328 130.285 388.41C131.67 389.491 132.361 391.237 132.09 392.972C131.819 394.707 130.629 396.16 128.98 396.768C126.508 397.68 123.759 396.453 122.791 394.005C121.823 391.557 122.989 388.785 125.417 387.763Z" fill="var(--fill-0, #EDEDED)"/>
<path d="M97.5902 395.118C100.219 394.655 102.724 396.411 103.181 399.038C103.638 401.665 101.872 404.163 99.241 404.612C96.6206 405.059 94.1319 403.304 93.6767 400.688C93.2218 398.071 94.9719 395.58 97.5902 395.118Z" fill="var(--fill-0, #EDEDED)"/>
<path d="M415.694 233.751C417.355 233.362 419.098 233.897 420.25 235.153C421.403 236.408 421.788 238.188 421.259 239.807C420.73 241.427 419.364 242.635 417.691 242.966C415.164 243.468 412.704 241.854 412.158 239.339C411.613 236.825 413.188 234.338 415.694 233.751Z" fill="var(--fill-0, #EDEDED)"/>
<path d="M23.1542 252.974C24.7777 252.351 26.613 252.676 27.9235 253.818C29.234 254.96 29.8049 256.732 29.407 258.424C29.0091 260.115 27.7078 261.448 26.0252 261.887C23.6151 262.517 21.1323 261.156 20.3693 258.787C19.6063 256.418 20.8287 253.867 23.1542 252.974Z" fill="var(--fill-0, #EDEDED)"/>
<path d="M339.691 413.603C342.004 413.062 344.338 414.422 345.001 416.7C345.666 418.982 344.427 421.378 342.183 422.161C340.623 422.706 338.891 422.345 337.679 421.223C336.466 420.104 335.972 418.404 336.393 416.81C336.814 415.213 338.083 413.98 339.691 413.603Z" fill="var(--fill-0, #EDEDED)"/>
<path d="M149.724 44.9236C152.096 44.6467 154.263 46.2903 154.632 48.6467C155.002 51.0032 153.441 53.2302 151.099 53.6907C149.5 54.0049 147.857 53.4199 146.818 52.1667C145.778 50.9135 145.508 49.1924 146.114 47.6816C146.721 46.1711 148.106 45.1125 149.724 44.9236Z" fill="var(--fill-0, #EDEDED)"/>
<path d="M154.07 123.12C155.601 122.522 157.339 122.818 158.585 123.89C159.831 124.962 160.383 126.634 160.018 128.236C159.653 129.837 158.431 131.107 156.844 131.534C154.567 132.147 152.207 130.876 151.47 128.639C150.732 126.402 151.874 123.979 154.07 123.12Z" fill="var(--fill-0, #EDEDED)"/>
<path d="M423.728 158.767C425.979 157.983 428.44 159.154 429.248 161.391C430.052 163.629 428.908 166.099 426.672 166.928C424.408 167.768 421.894 166.602 421.078 164.332C420.258 162.064 421.451 159.563 423.728 158.767Z" fill="var(--fill-0, #EDEDED)"/>
<path d="M328.573 139.413C330.826 138.959 333.04 140.345 333.613 142.568C334.186 144.791 332.918 147.073 330.726 147.763C329.202 148.243 327.536 147.843 326.396 146.723C325.256 145.602 324.829 143.945 325.285 142.414C325.741 140.883 327.006 139.729 328.573 139.413Z" fill="var(--fill-0, #EDEDED)"/>
<path d="M38.4356 366.497C40.6791 365.964 42.9443 367.294 43.5702 369.511C44.1956 371.728 42.9591 374.044 40.7673 374.759C39.2666 375.249 37.6178 374.879 36.4723 373.794C35.3264 372.709 34.8679 371.084 35.278 369.561C35.6877 368.038 36.8997 366.862 38.4356 366.497Z" fill="var(--fill-0, #EDEDED)"/>
<path d="M51.6095 342.299C53.844 341.596 56.2301 342.812 56.9717 345.031C57.7136 347.251 56.5373 349.655 54.3283 350.433C52.8654 350.949 51.2375 350.636 50.0707 349.615C48.9038 348.594 48.3789 347.024 48.698 345.507C49.0166 343.991 50.1297 342.764 51.6095 342.299Z" fill="var(--fill-0, #EDEDED)"/>
<path d="M296.669 433.636C298.888 432.923 301.263 434.152 301.957 436.376C302.65 438.601 301.396 440.961 299.164 441.633C296.961 442.296 294.636 441.063 293.951 438.867C293.267 436.675 294.479 434.34 296.669 433.636Z" fill="var(--fill-0, #EDEDED)"/>
<path d="M15.8725 325.075C18.0358 324.358 20.3748 325.51 21.1219 327.661C21.8689 329.813 20.7467 332.164 18.6032 332.939C17.191 333.449 15.613 333.161 14.473 332.185C13.333 331.208 12.8073 329.694 13.097 328.222C13.3868 326.75 14.4471 325.548 15.8725 325.075Z" fill="var(--fill-0, #EDEDED)"/>
<path d="M377.835 124.713C380.03 124.338 382.13 125.76 382.594 127.935C383.059 130.111 381.721 132.265 379.563 132.816C378.088 133.193 376.525 132.732 375.49 131.616C374.455 130.5 374.115 128.908 374.604 127.468C375.094 126.027 376.334 124.97 377.835 124.713Z" fill="var(--fill-0, #EDEDED)"/>
<path d="M2.69768 280.064C4.7272 279.378 6.93587 280.424 7.68897 282.427C8.44206 284.431 7.46802 286.67 5.48776 287.488C4.14792 288.041 2.61286 287.82 1.48301 286.913C0.353167 286.006 -0.191905 284.556 0.060986 283.13C0.313877 281.704 1.32454 280.529 2.69768 280.064Z" fill="var(--fill-0, #EDEDED)"/>
<path d="M409.185 284.095C411.12 283.271 413.36 284.155 414.213 286.078C415.062 288.002 414.209 290.252 412.293 291.127C411.03 291.704 409.558 291.558 408.434 290.746C407.31 289.933 406.711 288.579 406.867 287.202C407.023 285.825 407.905 284.638 409.185 284.095Z" fill="var(--fill-0, #EDEDED)"/>
<path d="M126.234 443.493C127.523 442.964 128.996 443.177 130.083 444.05C131.17 444.918 131.698 446.311 131.465 447.679C131.231 449.052 130.272 450.191 128.958 450.654C126.995 451.342 124.838 450.342 124.098 448.4C123.358 446.454 124.306 444.279 126.234 443.493Z" fill="var(--fill-0, #EDEDED)"/>
<path d="M413.618 260.686C415.669 260.279 417.67 261.591 418.109 263.633C418.548 265.675 417.264 267.691 415.23 268.162C413.881 268.472 412.474 268.034 411.543 267.016C410.608 265.997 410.3 264.556 410.731 263.245C411.161 261.933 412.265 260.956 413.618 260.686Z" fill="var(--fill-0, #EDEDED)"/>
<path d="M342.404 158.765C343.698 158.2 345.199 158.394 346.306 159.269C347.413 160.145 347.946 161.559 347.692 162.946C347.438 164.334 346.438 165.468 345.092 165.895C343.156 166.51 341.077 165.503 340.361 163.604C339.645 161.705 340.543 159.578 342.404 158.765Z" fill="var(--fill-0, #EDEDED)"/>
<path d="M351.125 68.238C353.021 67.3691 355.262 68.1893 356.148 70.075C357.034 71.9607 356.233 74.207 354.353 75.1083C352.45 76.0202 350.167 75.2078 349.27 73.2987C348.373 71.3901 349.206 69.1172 351.125 68.238Z" fill="var(--fill-0, #EDEDED)"/>
<path d="M107.988 175.971C109.905 175.184 112.099 176.083 112.909 177.988C113.72 179.893 112.844 182.095 110.947 182.926C109.699 183.472 108.255 183.307 107.164 182.493C106.073 181.678 105.504 180.341 105.674 178.992C105.845 177.642 106.729 176.488 107.988 175.971Z" fill="var(--fill-0, #EDEDED)"/>
<path d="M211.021 55.0553C212.283 54.576 213.705 54.8181 214.737 55.687C215.769 56.5563 216.248 57.9157 215.988 59.2389C215.729 60.5617 214.771 61.64 213.487 62.0558C211.569 62.6765 209.506 61.6564 208.836 59.7567C208.167 57.8571 209.136 55.7706 211.021 55.0553Z" fill="var(--fill-0, #EDEDED)"/>
<path d="M274.633 82.5693C276.655 82.2547 278.551 83.6345 278.871 85.6534C279.192 87.6727 277.816 89.5703 275.795 89.8955C273.767 90.2225 271.858 88.8415 271.537 86.8148C271.215 84.7877 272.603 82.8852 274.633 82.5693Z" fill="var(--fill-0, #EDEDED)"/>
<path d="M65.2652 318.509C67.2367 318.334 68.9954 319.745 69.2493 321.706C69.5031 323.666 68.162 325.478 66.2106 325.81C64.8768 326.036 63.5258 325.516 62.6908 324.453C61.8553 323.39 61.6695 321.956 62.2068 320.716C62.7437 319.476 63.9175 318.628 65.2652 318.509Z" fill="var(--fill-0, #EDEDED)"/>
<path d="M213.319 420.534C214.505 419.932 215.925 420.026 217.02 420.78C218.114 421.538 218.706 422.829 218.562 424.152C218.418 425.471 217.561 426.606 216.33 427.11C214.532 427.843 212.475 427.028 211.667 425.266C210.859 423.5 211.588 421.415 213.319 420.534Z" fill="var(--fill-0, #EDEDED)"/>
<path d="M194.745 32.9244C196.681 32.4749 198.617 33.6676 199.085 35.5969C199.552 37.5262 198.375 39.4712 196.448 39.9552C194.496 40.4454 192.519 39.2519 192.046 37.2979C191.572 35.344 192.785 33.3795 194.745 32.9244Z" fill="var(--fill-0, #EDEDED)"/>
<path d="M420.311 370.601C421.521 370.036 422.949 370.185 424.015 370.988C425.081 371.792 425.619 373.118 425.409 374.437C425.2 375.756 424.277 376.851 423.014 377.285C421.197 377.909 419.208 377.004 418.49 375.224C417.768 373.444 418.568 371.414 420.311 370.601Z" fill="var(--fill-0, #EDEDED)"/>
<path d="M389.268 261.172C391.091 260.339 393.244 261.148 394.065 262.975C394.886 264.801 394.061 266.946 392.227 267.754C390.411 268.554 388.288 267.74 387.475 265.931C386.662 264.122 387.462 261.996 389.268 261.172Z" fill="var(--fill-0, #EDEDED)"/>
<path d="M120.91 156.277C122.181 155.914 123.548 156.282 124.464 157.234C125.38 158.185 125.695 159.564 125.282 160.818C124.87 162.072 123.797 162.995 122.495 163.219C120.626 163.539 118.833 162.344 118.411 160.498C117.989 158.651 119.087 156.797 120.91 156.277Z" fill="var(--fill-0, #EDEDED)"/>
<path d="M413.085 211.542C414.93 211.024 416.858 212.065 417.436 213.893C418.011 215.722 417.034 217.678 415.222 218.312C413.999 218.741 412.638 218.47 411.67 217.605C410.706 216.74 410.288 215.418 410.583 214.156C410.874 212.894 411.834 211.892 413.085 211.542Z" fill="var(--fill-0, #EDEDED)"/>
<path d="M181.826 85.0585C183.693 84.8241 185.417 86.0917 185.748 87.9422C186.078 89.7923 184.9 91.5772 183.067 92.0024C181.794 92.2974 180.462 91.8677 179.603 90.884C178.744 89.9004 178.498 88.5239 178.963 87.3043C179.429 86.0847 180.53 85.2211 181.826 85.0585Z" fill="var(--fill-0, #EDEDED)"/>
<path d="M280.762 60.864C281.93 60.2818 283.324 60.3908 284.387 61.147C285.45 61.9037 286.009 63.1839 285.839 64.4769C285.67 65.7694 284.801 66.8636 283.579 67.3216C281.82 67.9804 279.852 67.1484 279.102 65.4281C278.352 63.7079 279.081 61.7017 280.762 60.864Z" fill="var(--fill-0, #EDEDED)"/>
<path d="M56.1138 296.841C57.2843 296.282 58.6677 296.412 59.7127 297.181C60.7573 297.95 61.293 299.231 61.106 300.513C60.9185 301.795 60.0392 302.87 58.8186 303.309C57.0575 303.941 55.1089 303.084 54.3879 301.359C53.6665 299.634 54.4256 297.648 56.1138 296.841Z" fill="var(--fill-0, #EDEDED)"/>
<path d="M95.1523 221.068C96.9339 220.502 98.841 221.465 99.4419 223.234C100.042 225.002 99.115 226.926 97.3563 227.56C96.1883 227.981 94.8832 227.739 93.9444 226.926C93.0056 226.114 92.5795 224.859 92.8301 223.643C93.0802 222.429 93.9686 221.444 95.1523 221.068Z" fill="var(--fill-0, #EDEDED)"/>
<path d="M458.971 284.519C460.747 284.279 462.404 285.453 462.765 287.206C463.126 288.958 462.063 290.69 460.337 291.167C459.11 291.507 457.798 291.135 456.933 290.205C456.067 289.274 455.792 287.939 456.223 286.743C456.65 285.547 457.712 284.69 458.971 284.519Z" fill="var(--fill-0, #EDEDED)"/>
<path d="M364.234 326.691C365.349 326.145 366.673 326.251 367.686 326.969C368.699 327.686 369.238 328.899 369.092 330.13C368.946 331.362 368.137 332.415 366.983 332.875C365.292 333.55 363.369 332.768 362.629 331.105C361.89 329.442 362.598 327.492 364.234 326.691Z" fill="var(--fill-0, #EDEDED)"/>
<path d="M79.3833 381.17C80.5047 380.598 81.8536 380.71 82.8646 381.46C83.8756 382.21 84.3731 383.467 84.1487 384.705C83.924 385.943 83.0163 386.946 81.8064 387.294C80.1671 387.765 78.4376 386.915 77.8109 385.331C77.1838 383.746 77.8646 381.946 79.3833 381.17Z" fill="var(--fill-0, #EDEDED)"/>
<path d="M145.331 402.173C146.303 401.493 147.565 401.386 148.637 401.895C149.709 402.404 150.424 403.449 150.51 404.631C150.595 405.813 150.038 406.95 149.051 407.607C147.549 408.607 145.522 408.214 144.503 406.726C143.485 405.238 143.854 403.208 145.331 402.173Z" fill="var(--fill-0, #EDEDED)"/>
<path d="M460.488 261.57C461.559 261.077 462.818 261.22 463.749 261.939C464.684 262.658 465.144 263.836 464.938 264.996C464.733 266.156 463.905 267.108 462.781 267.466C461.182 267.976 459.463 267.156 458.856 265.594C458.249 264.033 458.967 262.27 460.488 261.57Z" fill="var(--fill-0, #EDEDED)"/>
<path d="M436.053 205.466C437.603 204.79 439.412 205.492 440.101 207.039C440.79 208.586 440.097 210.397 438.554 211.095C436.996 211.799 435.163 211.101 434.465 209.539C433.772 207.977 434.482 206.149 436.053 205.466Z" fill="var(--fill-0, #EDEDED)"/>
<path d="M354.659 179.638C355.7 179.246 356.873 179.451 357.718 180.174C358.564 180.896 358.95 182.021 358.724 183.109C358.499 184.198 357.698 185.078 356.635 185.406C355.058 185.892 353.38 185.039 352.846 183.479C352.312 181.92 353.114 180.218 354.659 179.638Z" fill="var(--fill-0, #EDEDED)"/>
<path d="M378.135 172.636C379.737 172.127 381.45 173.008 381.965 174.606C382.48 176.205 381.603 177.919 380.004 178.438C378.398 178.96 376.673 178.08 376.156 176.474C375.638 174.867 376.526 173.147 378.135 172.636Z" fill="var(--fill-0, #EDEDED)"/>
<path d="M178.345 389.408C179.375 389.136 180.473 389.436 181.22 390.195C181.966 390.955 182.247 392.057 181.955 393.08C181.663 394.104 180.843 394.892 179.808 395.145C178.229 395.529 176.635 394.572 176.234 393C175.833 391.427 176.775 389.825 178.345 389.408Z" fill="var(--fill-0, #EDEDED)"/>
<path d="M136.155 368.106C137.619 367.469 139.324 368.108 140.009 369.548C140.693 370.99 140.11 372.713 138.69 373.443C137.73 373.937 136.576 373.869 135.681 373.266C134.786 372.662 134.291 371.62 134.39 370.546C134.488 369.472 135.165 368.537 136.155 368.106Z" fill="var(--fill-0, #EDEDED)"/>
<path d="M123.608 88.7258C125.009 87.9319 126.79 88.4235 127.584 89.8237C128.379 91.2236 127.886 93.002 126.484 93.7951C125.083 94.5883 123.303 94.0962 122.509 92.6968C121.715 91.2969 122.207 89.5194 123.608 88.7258Z" fill="var(--fill-0, #EDEDED)"/>
<path d="M247.519 397.583C248.492 397.157 249.621 397.302 250.454 397.96C251.287 398.618 251.688 399.682 251.498 400.726C251.307 401.77 250.555 402.622 249.542 402.944C248.087 403.406 246.524 402.65 245.986 401.222C245.447 399.795 246.121 398.196 247.519 397.583Z" fill="var(--fill-0, #EDEDED)"/>
<path d="M143.852 75.9675C144.816 75.5541 145.929 75.7057 146.746 76.362C147.563 77.0183 147.951 78.0716 147.754 79.1003C147.557 80.129 146.808 80.9651 145.806 81.2736C144.366 81.7173 142.831 80.9577 142.311 79.5456C141.791 78.1334 142.468 76.5615 143.852 75.9675Z" fill="var(--fill-0, #EDEDED)"/>
<path d="M387.171 100.593C388.651 100.394 390.026 101.393 390.292 102.861C390.558 104.329 389.621 105.746 388.166 106.078C387.163 106.307 386.115 105.968 385.439 105.194C384.762 104.42 384.566 103.337 384.928 102.376C385.29 101.414 386.152 100.729 387.171 100.593Z" fill="var(--fill-0, #EDEDED)"/>
<path d="M376.607 307.08C377.94 306.375 379.593 306.869 380.321 308.189C381.048 309.508 380.583 311.167 379.275 311.917C378.408 312.414 377.34 312.404 376.482 311.893C375.624 311.382 375.109 310.448 375.135 309.45C375.161 308.452 375.724 307.546 376.607 307.08Z" fill="var(--fill-0, #EDEDED)"/>
<path d="M171.173 40.0463C172.401 39.1507 174.123 39.4197 175.02 40.647C175.915 41.8745 175.645 43.5947 174.416 44.489C173.188 45.3825 171.467 45.1125 170.572 43.8864C169.676 42.6602 169.945 40.9411 171.173 40.0463Z" fill="var(--fill-0, #EDEDED)"/>
<path d="M426.258 112.473C427.554 112.371 428.707 113.301 428.875 114.588C429.047 115.875 428.182 117.072 426.906 117.314C426.012 117.482 425.102 117.145 424.536 116.437C423.974 115.73 423.843 114.768 424.204 113.938C424.564 113.107 425.356 112.544 426.258 112.473Z" fill="var(--fill-0, #EDEDED)"/>
<path d="M294.843 17.4592C295.883 16.7268 297.321 16.9746 298.055 18.0129C298.79 19.0511 298.543 20.4875 297.505 21.2226C296.465 21.959 295.024 21.7125 294.287 20.6723C293.552 19.6322 293.8 18.1929 294.843 17.4592Z" fill="var(--fill-0, #EDEDED)"/>
</g>
</svg>
