<svg preserveAspectRatio="none" width="100%" height="100%" overflow="visible" style="display: block;" viewBox="0 0 15.5 15.4999" fill="none" xmlns="http://www.w3.org/2000/svg">
<g id="Vector">
<path d="M14.75 6.99994C15.1642 6.99994 15.5 7.33573 15.5 7.74994C15.5 8.16416 15.1642 8.49994 14.75 8.49994H0.75C0.335786 8.49994 0 8.16416 0 7.74994C0 7.33573 0.335786 6.99994 0.75 6.99994H14.75Z" fill="var(--fill-0, white)"/>
<path d="M7.21973 0.21967C7.51262 -0.0732233 7.98738 -0.0732233 8.28027 0.21967L15.2803 7.21967C15.5732 7.51256 15.5732 7.98732 15.2803 8.28022L8.28027 15.2802C7.98738 15.5731 7.51262 15.5731 7.21973 15.2802C6.92683 14.9873 6.92683 14.5126 7.21973 14.2197L13.6895 7.74994L7.21973 1.28022C6.92683 0.987324 6.92683 0.512563 7.21973 0.21967Z" fill="var(--fill-0, white)"/>
</g>
</svg>
