<svg preserveAspectRatio="none" width="100%" height="100%" overflow="visible" style="display: block;" viewBox="0 0 14.3333 14.3333" fill="none" xmlns="http://www.w3.org/2000/svg">
<g id="Vector">
<path d="M13.3333 7.16667C13.3333 3.76091 10.5724 1 7.16667 1C3.76091 1 1 3.76091 1 7.16667C1 10.5724 3.76091 13.3333 7.16667 13.3333C10.5724 13.3333 13.3333 10.5724 13.3333 7.16667ZM14.3333 7.16667C14.3333 11.1247 11.1247 14.3333 7.16667 14.3333C3.20863 14.3333 0 11.1247 0 7.16667C0 3.20863 3.20863 0 7.16667 0C11.1247 0 14.3333 3.20863 14.3333 7.16667Z" fill="var(--fill-0, #020617)"/>
<path d="M8.66667 5.83333C8.66667 5.00491 7.99509 4.33333 7.16667 4.33333C6.33824 4.33333 5.66667 5.00491 5.66667 5.83333C5.66667 6.66176 6.33824 7.33333 7.16667 7.33333C7.99509 7.33333 8.66667 6.66176 8.66667 5.83333ZM9.66667 5.83333C9.66667 7.21404 8.54738 8.33333 7.16667 8.33333C5.78595 8.33333 4.66667 7.21404 4.66667 5.83333C4.66667 4.45262 5.78595 3.33333 7.16667 3.33333C8.54738 3.33333 9.66667 4.45262 9.66667 5.83333Z" fill="var(--fill-0, #020617)"/>
<path d="M10 12.9414V11.8333C10 11.6123 9.91214 11.4004 9.75586 11.2441C9.59958 11.0879 9.38768 11 9.16667 11H5.16667C4.94565 11 4.73375 11.0879 4.57747 11.2441C4.42119 11.4004 4.33333 11.6123 4.33333 11.8333V12.9414C4.33329 13.2175 4.10945 13.4414 3.83333 13.4414C3.55721 13.4414 3.33337 13.2175 3.33333 12.9414V11.8333C3.33333 11.3471 3.52663 10.8809 3.87044 10.5371C4.21426 10.1933 4.68044 10 5.16667 10H9.16667C9.6529 10 10.1191 10.1933 10.4629 10.5371C10.8067 10.8809 11 11.3471 11 11.8333V12.9414C11 13.2175 10.7761 13.4414 10.5 13.4414C10.2239 13.4414 10 13.2175 10 12.9414Z" fill="var(--fill-0, #020617)"/>
</g>
</svg>
