<svg preserveAspectRatio="none" width="100%" height="100%" overflow="visible" style="display: block;" viewBox="0 0 450 442" fill="none" xmlns="http://www.w3.org/2000/svg">
<g id="image 21 [Vectorized]" clip-path="url(#clip0_228_820)">
<g id="Vector">
<path d="M104.788 324.468C110.322 323.899 115.262 327.94 115.794 333.471C116.326 339.003 112.246 343.909 106.705 344.402C101.217 344.89 96.3634 340.863 95.8368 335.386C95.3102 329.908 99.3078 325.032 104.788 324.468Z" fill="var(--fill-0, #EDEDED)"/>
<path d="M60.6958 314.131C66.1227 313.61 70.9583 317.55 71.5382 322.965C72.1185 328.38 68.2276 333.253 62.8129 333.891C60.0129 334.221 57.2043 333.349 55.0847 331.492C52.9655 329.635 51.7347 326.966 51.6986 324.15C51.6318 318.981 55.5441 314.624 60.6958 314.131Z" fill="var(--fill-0, #EDEDED)"/>
<path d="M334.635 365.365C340.018 364.491 345.102 368.11 346.03 373.478C346.959 378.846 343.386 383.959 338.022 384.939C332.582 385.933 327.375 382.304 326.433 376.86C325.492 371.417 329.177 366.252 334.635 365.365Z" fill="var(--fill-0, #EDEDED)"/>
<path d="M55.819 177.322C61.1171 175.986 66.5014 179.174 67.8704 184.458C69.2395 189.742 66.0794 195.139 60.7968 196.537C55.4712 197.947 50.0139 194.759 48.6334 189.43C47.2532 184.103 50.4769 178.67 55.819 177.322Z" fill="var(--fill-0, #EDEDED)"/>
<path d="M240.963 393.207C246.256 392.126 251.434 395.504 252.572 400.777C253.71 406.054 250.384 411.261 245.116 412.453C241.657 413.235 238.045 412.104 235.655 409.487C233.265 406.869 232.468 403.169 233.566 399.802C234.664 396.434 237.489 393.916 240.963 393.207Z" fill="var(--fill-0, #EDEDED)"/>
<path d="M44.8253 398.073C48.2134 397.594 51.5966 398.975 53.681 401.683C55.7653 404.395 56.2287 408.016 54.8933 411.162C53.5579 414.309 50.6304 416.492 47.2311 416.881C42.0712 417.471 37.3948 413.809 36.737 408.663C36.0787 403.518 39.6826 398.798 44.8253 398.073Z" fill="var(--fill-0, #EDEDED)"/>
<path d="M6.59032 254.305C11.5202 252.934 16.6297 255.814 18.0028 260.739C19.3759 265.662 16.4935 270.767 11.5641 272.139C6.63338 273.512 1.52266 270.631 0.149109 265.706C-1.22444 260.781 1.65965 255.677 6.59032 254.305Z" fill="var(--fill-0, #EDEDED)"/>
<path d="M21.3763 342.84C24.5684 341.91 28.0147 342.767 30.3976 345.084C32.7805 347.4 33.7312 350.818 32.8868 354.031C32.0423 357.243 29.5327 359.754 26.3176 360.602C21.4345 361.89 16.4214 359.019 15.0692 354.157C13.7165 349.297 16.5276 344.253 21.3763 342.84Z" fill="var(--fill-0, #EDEDED)"/>
<path d="M232.8 421.138C237.827 420.814 242.185 424.579 242.587 429.594C242.989 434.608 239.287 439.02 234.272 439.5C230.96 439.815 227.734 438.32 225.831 435.595C223.929 432.867 223.645 429.327 225.089 426.333C226.533 423.338 229.48 421.355 232.8 421.138Z" fill="var(--fill-0, #EDEDED)"/>
<path d="M-1.64022 302.65C3.21047 301.942 7.71583 305.301 8.41512 310.148C9.11481 314.995 5.74307 319.488 0.889503 320.178C-3.95094 320.865 -8.43415 317.508 -9.13179 312.675C-9.82943 307.842 -6.47779 303.357 -1.64022 302.65Z" fill="var(--fill-0, #EDEDED)"/>
<path d="M342.174 264.46C345.302 263.827 348.53 264.927 350.618 267.34C352.706 269.751 353.331 273.1 352.252 276.101C351.174 279.103 348.56 281.29 345.413 281.825C340.651 282.635 336.12 279.478 335.236 274.735C334.351 269.992 337.44 265.418 342.174 264.46Z" fill="var(--fill-0, #EDEDED)"/>
<path d="M218.46 399.364C223.262 398.495 227.857 401.691 228.71 406.488C229.563 411.289 226.349 415.869 221.541 416.701C216.757 417.533 212.202 414.341 211.354 409.569C210.505 404.792 213.683 400.232 218.46 399.364Z" fill="var(--fill-0, #EDEDED)"/>
<path d="M-16.2552 327.253C-13.185 326.385 -9.88472 327.243 -7.62814 329.496C-5.37156 331.75 -4.5115 335.046 -5.38017 338.113C-6.24843 341.18 -8.70967 343.538 -11.8136 344.277C-16.4754 345.386 -21.17 342.569 -22.3786 337.937C-23.5872 333.305 -20.8662 328.558 -16.2552 327.253Z" fill="var(--fill-0, #EDEDED)"/>
<path d="M402.063 310.007C405.205 309.615 408.31 310.964 410.164 313.526C412.022 316.088 412.329 319.456 410.972 322.313C409.614 325.17 406.809 327.061 403.647 327.246C398.979 327.521 394.931 324.046 394.505 319.392C394.078 314.739 397.421 310.587 402.063 310.007Z" fill="var(--fill-0, #EDEDED)"/>
<path d="M65.484 355.03C70.2108 354.287 74.6444 357.514 75.3843 362.236C76.1242 366.958 72.889 371.384 68.1614 372.118C63.4395 372.852 59.0153 369.626 58.2766 364.91C57.538 360.194 60.7637 355.772 65.484 355.03Z" fill="var(--fill-0, #EDEDED)"/>
<path d="M48.0517 338.657C52.6272 337.508 57.2655 340.292 58.3983 344.866C59.5307 349.441 56.7265 354.063 52.1433 355.178C47.5834 356.287 42.9849 353.503 41.8578 348.953C40.7312 344.403 43.5004 339.799 48.0517 338.657Z" fill="var(--fill-0, #EDEDED)"/>
<path d="M125.117 391.165C129.62 390.035 134.189 392.755 135.336 397.25C136.484 401.74 133.777 406.316 129.283 407.475C124.766 408.643 120.159 405.922 119.006 401.408C117.853 396.893 120.593 392.3 125.117 391.165Z" fill="var(--fill-0, #EDEDED)"/>
<path d="M122.83 339.916C127.13 338.585 131.695 340.991 133.024 345.287C134.353 349.583 131.941 354.141 127.64 355.465C123.342 356.788 118.784 354.382 117.457 350.091C116.13 345.799 118.535 341.245 122.83 339.916Z" fill="var(--fill-0, #EDEDED)"/>
<path d="M-10.1779 281.342C-7.32091 280.597 -4.28385 281.459 -2.24628 283.594C-0.208312 285.728 0.509427 288.799 -0.371548 291.615C-1.25252 294.43 -3.59359 296.546 -6.48587 297.142C-10.7997 298.03 -15.0364 295.323 -16.0377 291.039C-17.0389 286.754 -14.4399 282.453 -10.1779 281.342Z" fill="var(--fill-0, #EDEDED)"/>
<path d="M-12.7427 165.369C-8.45268 164.354 -4.14214 166.966 -3.05897 171.234C-1.97579 175.502 -4.5207 179.849 -8.77628 180.999C-11.5898 181.759 -14.5949 180.945 -16.6387 178.87C-18.6826 176.794 -19.4476 173.779 -18.6404 170.982C-17.8331 168.184 -15.5789 166.039 -12.7427 165.369Z" fill="var(--fill-0, #EDEDED)"/>
<path d="M34.2969 320.213C38.4942 319.098 42.8101 321.556 43.9872 325.732C45.1647 329.908 42.767 334.254 38.6037 335.491C35.8562 336.307 32.8819 335.582 30.8197 333.593C28.7575 331.604 27.9274 328.66 28.6476 325.889C29.3678 323.118 31.5264 320.948 34.2969 320.213Z" fill="var(--fill-0, #EDEDED)"/>
<path d="M347.029 387.391C351.295 386.342 355.601 388.959 356.628 393.225C357.654 397.491 355.012 401.781 350.735 402.78C346.491 403.776 342.239 401.162 341.22 396.926C340.2 392.694 342.796 388.433 347.029 387.391Z" fill="var(--fill-0, #EDEDED)"/>
<path d="M113.922 361.643C118.061 360.872 122.063 363.529 122.955 367.639C123.847 371.749 121.306 375.823 117.219 376.834C114.467 377.515 111.561 376.647 109.635 374.569C107.709 372.491 107.066 369.53 107.958 366.842C108.85 364.153 111.134 362.161 113.922 361.643Z" fill="var(--fill-0, #EDEDED)"/>
<path d="M-17.3597 188.768C-13.319 187.816 -9.258 190.266 -8.22035 194.282C-7.18311 198.297 -9.55001 202.404 -13.5472 203.524C-16.2085 204.27 -19.0654 203.52 -21.0154 201.563C-22.9655 199.606 -23.7037 196.749 -22.9451 194.095C-22.1866 191.44 -20.0499 189.402 -17.3597 188.768Z" fill="var(--fill-0, #EDEDED)"/>
<path d="M194.534 403.387C197.199 402.658 200.05 403.428 201.983 405.398C203.916 407.373 204.628 410.237 203.841 412.883C203.055 415.53 200.894 417.541 198.197 418.143C194.162 419.04 190.149 416.558 189.154 412.551C188.159 408.541 190.547 404.476 194.534 403.387Z" fill="var(--fill-0, #EDEDED)"/>
<path d="M74.9387 334.197C77.4951 333.229 80.3755 333.713 82.4737 335.464C84.5724 337.214 85.5633 339.958 85.0662 342.643C84.5691 345.329 82.6612 347.538 80.0744 348.422C76.1638 349.76 71.902 347.718 70.5002 343.834C69.0979 339.95 71.0736 335.66 74.9387 334.197Z" fill="var(--fill-0, #EDEDED)"/>
<path d="M86.4536 311.665C90.3955 310.629 94.4353 312.965 95.4984 316.895C96.561 320.826 94.2479 324.876 90.3196 325.963C86.356 327.059 82.2567 324.723 81.1842 320.757C80.1121 316.791 82.4765 312.711 86.4536 311.665Z" fill="var(--fill-0, #EDEDED)"/>
<path d="M-19.3046 212.533C-15.353 211.81 -11.5654 214.432 -10.8567 218.382C-10.1479 222.332 -12.7875 226.105 -16.7445 226.798C-20.6805 227.488 -24.4336 224.868 -25.1387 220.939C-25.8437 217.01 -23.2353 213.252 -19.3046 212.533Z" fill="var(--fill-0, #EDEDED)"/>
<path d="M-15.9839 259.565C-12.1243 258.874 -8.42667 261.414 -7.69253 265.262C-6.95838 269.109 -9.46186 272.83 -13.3057 273.604C-15.8292 274.113 -18.4316 273.228 -20.1203 271.287C-21.8091 269.346 -22.3237 266.649 -21.4679 264.224C-20.6121 261.798 -18.5178 260.02 -15.9839 259.565Z" fill="var(--fill-0, #EDEDED)"/>
<path d="M-33.5481 285.439C-31.0398 284.771 -28.366 285.517 -26.5686 287.389C-24.7713 289.26 -24.1347 291.959 -24.9069 294.435C-25.6792 296.91 -27.7381 298.771 -30.2814 299.291C-34.0574 300.063 -37.7639 297.697 -38.6477 293.949C-39.5314 290.202 -37.2722 286.432 -33.5481 285.439Z" fill="var(--fill-0, #EDEDED)"/>
<path d="M46.4546 297.754C48.7513 296.844 51.3602 297.24 53.2833 298.79C55.2065 300.339 56.1453 302.803 55.7405 305.237C55.3357 307.672 53.6504 309.7 51.329 310.546C47.8092 311.828 43.9109 310.049 42.5779 306.551C41.245 303.053 42.9717 299.135 46.4546 297.754Z" fill="var(--fill-0, #EDEDED)"/>
<path d="M181.866 380.525C185.472 379.745 189.041 381.984 189.904 385.566C190.767 389.149 188.607 392.765 185.041 393.708C182.661 394.337 180.126 393.63 178.417 391.86C176.708 390.089 176.092 387.533 176.808 385.18C177.524 382.827 179.46 381.045 181.866 380.525Z" fill="var(--fill-0, #EDEDED)"/>
<path d="M10.5132 368.158C12.8776 367.453 15.4381 368.087 17.1993 369.812C18.9608 371.538 19.6449 374.083 18.9858 376.458C18.3267 378.832 16.4282 380.662 14.0289 381.235C10.4574 382.088 6.85517 379.947 5.90284 376.404C4.95091 372.862 6.99463 369.206 10.5132 368.158Z" fill="var(--fill-0, #EDEDED)"/>
<path d="M4.08821 233.419C6.40508 232.601 8.98402 233.101 10.8251 234.727C12.6662 236.353 13.4795 238.848 12.9501 241.246C12.4202 243.643 10.6307 245.564 8.27571 246.265C4.75878 247.311 1.04786 245.367 -0.0882225 241.881C-1.2243 238.396 0.628702 234.642 4.08821 233.419Z" fill="var(--fill-0, #EDEDED)"/>
<path d="M129.458 443.039C133.011 442.887 136.048 445.571 136.331 449.11C136.614 452.65 134.043 455.78 130.511 456.194C128.107 456.476 125.742 455.423 124.344 453.449C122.946 451.478 122.74 448.897 123.806 446.726C124.872 444.559 127.041 443.141 129.458 443.039Z" fill="var(--fill-0, #EDEDED)"/>
<path d="M363.35 371.459C366.869 370.61 370.409 372.776 371.25 376.292C372.095 379.808 369.917 383.339 366.394 384.173C362.883 385.004 359.364 382.839 358.523 379.334C357.682 375.828 359.844 372.306 363.35 371.459Z" fill="var(--fill-0, #EDEDED)"/>
<path d="M263.213 388.709C266.66 387.626 270.331 389.549 271.4 392.996C272.469 396.443 270.528 400.101 267.072 401.154C263.637 402.203 260.002 400.277 258.94 396.852C257.878 393.424 259.788 389.785 263.213 388.709Z" fill="var(--fill-0, #EDEDED)"/>
<path d="M94.6207 405.406C96.8744 405.009 99.1662 405.869 100.605 407.647C102.043 409.425 102.401 411.842 101.54 413.96C100.68 416.078 98.7356 417.561 96.4634 417.836C93.0794 418.241 89.9865 415.886 89.4874 412.518C88.9878 409.151 91.2641 405.996 94.6207 405.406Z" fill="var(--fill-0, #EDEDED)"/>
<path d="M328.326 404.312C331.498 403.014 335.125 404.521 336.441 407.684C337.756 410.847 336.265 414.476 333.104 415.804C329.923 417.139 326.261 415.64 324.938 412.457C323.614 409.274 325.133 405.623 328.326 404.312Z" fill="var(--fill-0, #EDEDED)"/>
<path d="M350.625 351.065C354.024 350.587 357.168 352.951 357.65 356.345C358.13 359.74 355.768 362.882 352.37 363.366C348.967 363.851 345.816 361.487 345.334 358.088C344.853 354.689 347.222 351.544 350.625 351.065Z" fill="var(--fill-0, #EDEDED)"/>
<path d="M73.1112 394.416C75.2641 393.748 77.6105 394.298 79.2408 395.853C80.8706 397.41 81.5273 399.728 80.9563 401.904C80.3854 404.083 78.676 405.783 76.492 406.34C73.2318 407.172 69.9007 405.259 68.9836 402.023C68.0666 398.79 69.8974 395.415 73.1112 394.416Z" fill="var(--fill-0, #EDEDED)"/>
<path d="M147.731 400.961C149.875 400.293 152.215 400.842 153.834 402.399C155.454 403.952 156.098 406.267 155.513 408.434C154.929 410.601 153.209 412.276 151.026 412.809C147.796 413.596 144.525 411.678 143.635 408.479C142.745 405.279 144.558 401.953 147.731 400.961Z" fill="var(--fill-0, #EDEDED)"/>
<path d="M63.2388 415.722C65.3584 415.095 67.651 415.661 69.2383 417.197C70.8255 418.733 71.4612 421.003 70.9006 423.137C70.3403 425.276 68.6715 426.943 66.5338 427.504C63.2987 428.352 59.9794 426.451 59.0796 423.235C58.1793 420.015 60.0315 416.672 63.2388 415.722Z" fill="var(--fill-0, #EDEDED)"/>
<path d="M391.039 333.303C394.336 332.841 397.4 335.099 397.929 338.384C398.458 341.669 396.26 344.772 392.983 345.366C390.801 345.762 388.578 344.95 387.171 343.243C385.76 341.536 385.383 339.202 386.187 337.14C386.991 335.078 388.845 333.61 391.039 333.303Z" fill="var(--fill-0, #EDEDED)"/>
<path d="M283.534 378.051C285.57 377.239 287.888 377.601 289.578 378.997C291.268 380.392 292.061 382.597 291.646 384.747C291.231 386.898 289.673 388.65 287.585 389.318C284.509 390.301 281.206 388.674 280.115 385.638C279.023 382.602 280.535 379.247 283.534 378.051Z" fill="var(--fill-0, #EDEDED)"/>
<path d="M38.4485 276.901C41.5951 276.331 44.6154 278.396 45.222 281.532C45.829 284.669 43.7971 287.709 40.6645 288.352C38.6056 288.774 36.4782 288.058 35.0948 286.478C33.711 284.897 33.2853 282.695 33.9793 280.713C34.6732 278.732 36.3802 277.276 38.4485 276.901Z" fill="var(--fill-0, #EDEDED)"/>
<path d="M157.751 379.24C159.666 378.488 161.839 378.828 163.43 380.131C165.022 381.434 165.784 383.495 165.422 385.518C165.06 387.542 163.63 389.211 161.685 389.882C158.764 390.89 155.573 389.38 154.502 386.485C153.432 383.589 154.875 380.37 157.751 379.24Z" fill="var(--fill-0, #EDEDED)"/>
<path d="M315.914 385.03C317.811 384.282 319.965 384.632 321.527 385.941C323.089 387.25 323.808 389.308 323.401 391.304C322.993 393.299 321.525 394.912 319.574 395.505C316.72 396.373 313.69 394.836 312.707 392.023C311.725 389.21 313.14 386.124 315.914 385.03Z" fill="var(--fill-0, #EDEDED)"/>
<path d="M276.159 410.044C278.901 409.02 281.953 410.425 282.955 413.17C283.956 415.919 282.523 418.954 279.763 419.929C277.038 420.892 274.045 419.483 273.056 416.771C272.067 414.059 273.452 411.056 276.159 410.044Z" fill="var(--fill-0, #EDEDED)"/>
<path d="M409.314 291.143C412.099 290.47 414.909 292.165 415.606 294.942C416.303 297.719 414.63 300.54 411.857 301.261C409.048 301.991 406.185 300.295 405.475 297.483C404.77 294.673 406.493 291.825 409.314 291.143Z" fill="var(--fill-0, #EDEDED)"/>
<path d="M106.569 437.463C109.417 437.148 111.983 439.196 112.304 442.039C112.625 444.882 110.581 447.451 107.734 447.775C104.879 448.102 102.301 446.054 101.978 443.203C101.656 440.351 103.713 437.779 106.569 437.463Z" fill="var(--fill-0, #EDEDED)"/>
<path d="M83.4834 373.524C85.1035 372.842 86.9663 373.089 88.3513 374.171C89.7368 375.252 90.4275 376.998 90.1564 378.733C89.8853 380.468 88.695 381.921 87.0459 382.529C84.574 383.441 81.8256 382.214 80.8573 379.766C79.889 377.318 81.055 374.546 83.4834 373.524Z" fill="var(--fill-0, #EDEDED)"/>
<path d="M55.6565 380.879C58.2851 380.416 60.7906 382.172 61.2475 384.799C61.7044 387.426 59.9388 389.924 57.3073 390.373C54.687 390.82 52.1982 389.065 51.743 386.449C51.2881 383.832 53.0382 381.341 55.6565 380.879Z" fill="var(--fill-0, #EDEDED)"/>
<path d="M-18.7795 238.735C-17.156 238.112 -15.3207 238.437 -14.0102 239.579C-12.6997 240.721 -12.1288 242.493 -12.5267 244.185C-12.9245 245.876 -14.2259 247.209 -15.9085 247.648C-18.3186 248.278 -20.8014 246.917 -21.5644 244.548C-22.3274 242.179 -21.105 239.628 -18.7795 238.735Z" fill="var(--fill-0, #EDEDED)"/>
<path d="M297.757 399.364C300.071 398.823 302.404 400.183 303.068 402.461C303.732 404.743 302.493 407.139 300.249 407.922C298.69 408.467 296.957 408.106 295.745 406.984C294.532 405.865 294.038 404.165 294.459 402.571C294.881 400.974 296.149 399.741 297.757 399.364Z" fill="var(--fill-0, #EDEDED)"/>
<path d="M-3.49805 352.258C-1.2546 351.725 1.01059 353.055 1.63646 355.272C2.26191 357.489 1.02535 359.805 -1.16642 360.52C-2.66711 361.01 -4.31586 360.64 -5.46138 359.555C-6.6073 358.47 -7.06583 356.845 -6.6557 355.322C-6.24597 353.799 -5.03402 352.623 -3.49805 352.258Z" fill="var(--fill-0, #EDEDED)"/>
<path d="M9.67583 328.06C11.9103 327.357 14.2964 328.573 15.038 330.792C15.7799 333.012 14.6036 335.416 12.3946 336.194C10.9317 336.71 9.30384 336.397 8.137 335.376C6.97016 334.355 6.44518 332.785 6.76427 331.268C7.08294 329.752 8.19606 328.525 9.67583 328.06Z" fill="var(--fill-0, #EDEDED)"/>
<path d="M254.735 419.397C256.954 418.684 259.329 419.913 260.023 422.137C260.717 424.362 259.462 426.722 257.23 427.394C255.027 428.057 252.702 426.824 252.018 424.628C251.333 422.436 252.546 420.101 254.735 419.397Z" fill="var(--fill-0, #EDEDED)"/>
<path d="M-26.0612 310.836C-23.8979 310.119 -21.5588 311.271 -20.8118 313.422C-20.0648 315.574 -21.187 317.925 -23.3305 318.7C-24.7427 319.21 -26.3207 318.922 -27.4607 317.946C-28.6007 316.969 -29.1264 315.455 -28.8367 313.983C-28.5469 312.511 -27.4866 311.309 -26.0612 310.836Z" fill="var(--fill-0, #EDEDED)"/>
<path d="M-39.236 265.825C-37.2065 265.139 -34.9978 266.185 -34.2447 268.189C-33.4916 270.192 -34.4657 272.431 -36.4459 273.249C-37.7858 273.802 -39.3208 273.581 -40.4507 272.674C-41.5805 271.767 -42.1256 270.317 -41.8727 268.891C-41.6198 267.465 -40.6092 266.29 -39.236 265.825Z" fill="var(--fill-0, #EDEDED)"/>
<path d="M367.251 269.856C369.187 269.032 371.426 269.916 372.279 271.839C373.128 273.763 372.275 276.013 370.36 276.889C369.097 277.465 367.624 277.319 366.5 276.507C365.377 275.694 364.778 274.34 364.934 272.963C365.089 271.586 365.971 270.399 367.251 269.856Z" fill="var(--fill-0, #EDEDED)"/>
<path d="M84.2998 429.254C85.5893 428.725 87.0625 428.938 88.149 429.811C89.2358 430.679 89.7645 432.072 89.5311 433.44C89.2974 434.813 88.3381 435.952 87.0244 436.415C85.0611 437.103 82.9041 436.103 82.1647 434.161C81.4248 432.216 82.3726 430.04 84.2998 429.254Z" fill="var(--fill-0, #EDEDED)"/>
<path d="M371.684 246.447C373.735 246.04 375.737 247.352 376.175 249.394C376.614 251.436 375.331 253.452 373.296 253.923C371.947 254.233 370.54 253.795 369.609 252.777C368.674 251.758 368.366 250.317 368.797 249.006C369.228 247.694 370.331 246.717 371.684 246.447Z" fill="var(--fill-0, #EDEDED)"/>
<path d="M23.3315 304.27C25.303 304.095 27.0617 305.506 27.3156 307.467C27.5694 309.427 26.2283 311.239 24.2769 311.571C22.9431 311.797 21.5921 311.277 20.7571 310.214C19.9216 309.151 19.7358 307.717 20.2731 306.477C20.81 305.237 21.9838 304.389 23.3315 304.27Z" fill="var(--fill-0, #EDEDED)"/>
<path d="M171.386 406.295C172.571 405.693 173.992 405.787 175.086 406.541C176.18 407.299 176.772 408.59 176.629 409.913C176.485 411.232 175.628 412.367 174.397 412.871C172.599 413.604 170.541 412.789 169.733 411.027C168.926 409.261 169.655 407.176 171.386 406.295Z" fill="var(--fill-0, #EDEDED)"/>
<path d="M378.378 356.362C379.588 355.797 381.015 355.946 382.081 356.749C383.148 357.553 383.685 358.879 383.476 360.198C383.267 361.517 382.344 362.612 381.081 363.046C379.264 363.67 377.274 362.765 376.557 360.985C375.835 359.205 376.635 357.175 378.378 356.362Z" fill="var(--fill-0, #EDEDED)"/>
<path d="M347.334 246.933C349.157 246.1 351.311 246.909 352.132 248.736C352.953 250.562 352.128 252.707 350.293 253.515C348.477 254.315 346.355 253.501 345.542 251.692C344.728 249.883 345.529 247.757 347.334 246.933Z" fill="var(--fill-0, #EDEDED)"/>
<path d="M14.1801 282.602C15.3506 282.043 16.734 282.173 17.779 282.942C18.8237 283.711 19.3593 284.992 19.1723 286.274C18.9848 287.556 18.1055 288.631 16.8849 289.07C15.1238 289.702 13.1752 288.845 12.4542 287.12C11.7328 285.395 12.4919 283.409 14.1801 282.602Z" fill="var(--fill-0, #EDEDED)"/>
<path d="M53.2186 206.829C55.0002 206.263 56.9073 207.226 57.5082 208.995C58.1086 210.763 57.1813 212.687 55.4227 213.321C54.2546 213.742 52.9495 213.5 52.0107 212.687C51.0719 211.875 50.6458 210.62 50.8964 209.404C51.1466 208.19 52.0349 207.205 53.2186 206.829Z" fill="var(--fill-0, #EDEDED)"/>
<path d="M417.037 270.28C418.813 270.04 420.47 271.214 420.831 272.967C421.192 274.719 420.13 276.451 418.403 276.928C417.177 277.268 415.864 276.897 414.999 275.966C414.134 275.035 413.859 273.7 414.289 272.504C414.716 271.308 415.778 270.451 417.037 270.28Z" fill="var(--fill-0, #EDEDED)"/>
<path d="M322.3 312.452C323.415 311.906 324.739 312.012 325.752 312.73C326.765 313.447 327.305 314.66 327.158 315.891C327.012 317.123 326.203 318.176 325.05 318.636C323.358 319.311 321.435 318.529 320.695 316.866C319.956 315.203 320.665 313.253 322.3 312.452Z" fill="var(--fill-0, #EDEDED)"/>
<path d="M37.4496 366.931C38.571 366.359 39.9199 366.471 40.9309 367.221C41.9419 367.971 42.4394 369.229 42.215 370.466C41.9903 371.704 41.0826 372.707 39.8727 373.055C38.2334 373.526 36.5039 372.676 35.8772 371.092C35.2501 369.507 35.9309 367.707 37.4496 366.931Z" fill="var(--fill-0, #EDEDED)"/>
<path d="M103.397 387.934C104.369 387.254 105.632 387.148 106.703 387.656C107.775 388.165 108.49 389.21 108.576 390.392C108.661 391.574 108.104 392.711 107.117 393.368C105.615 394.368 103.588 393.975 102.569 392.487C101.551 390.999 101.92 388.969 103.397 387.934Z" fill="var(--fill-0, #EDEDED)"/>
<path d="M136.412 375.17C137.442 374.897 138.539 375.197 139.286 375.956C140.032 376.716 140.313 377.818 140.021 378.841C139.729 379.865 138.909 380.653 137.874 380.906C136.295 381.29 134.701 380.333 134.3 378.761C133.899 377.188 134.841 375.586 136.412 375.17Z" fill="var(--fill-0, #EDEDED)"/>
<path d="M94.2211 353.867C95.6849 353.23 97.3906 353.869 98.0752 355.309C98.7597 356.751 98.1761 358.474 96.7562 359.204C95.796 359.698 94.6427 359.63 93.7478 359.027C92.8525 358.423 92.357 357.381 92.4559 356.307C92.5543 355.233 93.231 354.298 94.2211 353.867Z" fill="var(--fill-0, #EDEDED)"/>
<path d="M205.586 383.345C206.558 382.918 207.687 383.063 208.52 383.721C209.353 384.379 209.755 385.443 209.564 386.487C209.373 387.531 208.621 388.383 207.609 388.705C206.154 389.167 204.591 388.411 204.052 386.983C203.513 385.556 204.187 383.957 205.586 383.345Z" fill="var(--fill-0, #EDEDED)"/>
<path d="M334.673 292.841C336.007 292.136 337.659 292.63 338.387 293.95C339.115 295.269 338.65 296.928 337.341 297.678C336.474 298.175 335.407 298.165 334.549 297.654C333.691 297.143 333.176 296.209 333.201 295.211C333.227 294.213 333.79 293.307 334.673 292.841Z" fill="var(--fill-0, #EDEDED)"/>
</g>
<g id="Rectangle 15" filter="url(#filter0_d_228_820)">
<path d="M33.5198 317.774C34.2345 315.107 36.9762 313.524 39.6435 314.239V314.239C42.3108 314.953 43.8938 317.695 43.179 320.362V320.362C42.4643 323.03 39.7226 324.613 37.0553 323.898V323.898C34.388 323.183 32.8051 320.442 33.5198 317.774V317.774Z" fill="var(--fill-0, #7979EF)"/>
</g>
<g id="Rectangle 16" filter="url(#filter1_d_228_820)">
<path d="M75.9461 391.259C76.6608 388.592 79.4025 387.009 82.0698 387.723V387.723C84.7371 388.438 86.3201 391.18 85.6053 393.847V393.847C84.8906 396.514 82.1489 398.097 79.4816 397.383V397.383C76.8143 396.668 75.2314 393.926 75.9461 391.259V391.259Z" fill="var(--fill-0, #7979EF)"/>
</g>
<g id="Rectangle 17" filter="url(#filter2_d_228_820)">
<path d="M132.007 375.222C132.722 372.555 135.463 370.972 138.131 371.687V371.687C140.798 372.401 142.381 375.143 141.666 377.81V377.81C140.951 380.478 138.21 382.06 135.542 381.346V381.346C132.875 380.631 131.292 377.889 132.007 375.222V375.222Z" fill="var(--fill-0, #7979EF)"/>
</g>
<g id="Rectangle 18" filter="url(#filter3_d_228_820)">
<path d="M172.539 417.141C173.253 414.473 175.995 412.891 178.662 413.605V413.605C181.33 414.32 182.913 417.062 182.198 419.729V419.729C181.483 422.396 178.742 423.979 176.074 423.265V423.265C173.407 422.55 171.824 419.808 172.539 417.141V417.141Z" fill="var(--fill-0, #7979EF)"/>
</g>
<g id="Rectangle 19" filter="url(#filter4_d_228_820)">
<path d="M253.094 386.962C253.809 384.295 256.551 382.712 259.218 383.426V383.426C261.885 384.141 263.468 386.883 262.754 389.55V389.55C262.039 392.217 259.297 393.8 256.63 393.086V393.086C253.963 392.371 252.38 389.629 253.094 386.962V386.962Z" fill="var(--fill-0, #7979EF)"/>
</g>
<g id="Rectangle 20" filter="url(#filter5_d_228_820)">
<path d="M318.815 373.513C319.529 370.846 322.271 369.263 324.938 369.978V369.978C327.606 370.692 329.189 373.434 328.474 376.101V376.101C327.759 378.769 325.017 380.352 322.35 379.637V379.637C319.683 378.922 318.1 376.181 318.815 373.513V373.513Z" fill="var(--fill-0, #7979EF)"/>
</g>
<g id="Rectangle 21" filter="url(#filter6_d_228_820)">
<path d="M336.932 305.898C337.647 303.231 340.388 301.648 343.056 302.363V302.363C345.723 303.078 347.306 305.819 346.591 308.487V308.487C345.876 311.154 343.135 312.737 340.467 312.022V312.022C337.8 311.307 336.217 308.566 336.932 305.898V305.898Z" fill="var(--fill-0, #7979EF)"/>
</g>
<g id="Rectangle 22" filter="url(#filter7_d_228_820)">
<path d="M383.333 287.273C384.048 284.606 386.79 283.023 389.457 283.738V283.738C392.125 284.453 393.707 287.194 392.993 289.862V289.862C392.278 292.529 389.536 294.112 386.869 293.397V293.397C384.202 292.682 382.619 289.941 383.333 287.273V287.273Z" fill="var(--fill-0, #7979EF)"/>
</g>
<g id="Rectangle 23" filter="url(#filter8_d_228_820)">
<path d="M355.049 238.284C355.764 235.616 358.506 234.033 361.173 234.748V234.748C363.84 235.463 365.423 238.204 364.708 240.872V240.872C363.994 243.539 361.252 245.122 358.585 244.407V244.407C355.917 243.693 354.335 240.951 355.049 238.284V238.284Z" fill="var(--fill-0, #7979EF)"/>
</g>
<g id="Rectangle 24" filter="url(#filter9_d_228_820)">
<path d="M389.203 226.73C389.918 224.062 392.66 222.479 395.327 223.194V223.194C397.994 223.909 399.577 226.65 398.863 229.318V229.318C398.148 231.985 395.406 233.568 392.739 232.853V232.853C390.072 232.139 388.489 229.397 389.203 226.73V226.73Z" fill="var(--fill-0, #7979EF)"/>
</g>
<g id="Rectangle 25" filter="url(#filter10_d_228_820)">
<path d="M329.353 179.635C330.068 176.967 332.81 175.384 335.477 176.099V176.099C338.144 176.814 339.727 179.555 339.012 182.223V182.223C338.298 184.89 335.556 186.473 332.889 185.758V185.758C330.221 185.044 328.638 182.302 329.353 179.635V179.635Z" fill="var(--fill-0, #7979EF)"/>
</g>
<g id="Rectangle 26" filter="url(#filter11_d_228_820)">
<path d="M366.095 158.421C366.81 155.754 369.552 154.171 372.219 154.886V154.886C374.887 155.6 376.469 158.342 375.755 161.01V161.01C375.04 163.677 372.298 165.26 369.631 164.545V164.545C366.964 163.83 365.381 161.089 366.095 158.421V158.421Z" fill="var(--fill-0, #7979EF)"/>
</g>
</g>
<defs>
<filter id="filter0_d_228_820" x="18.6482" y="310.367" width="39.4025" height="39.4025" filterUnits="userSpaceOnUse" color-interpolation-filters="sRGB">
<feFlood flood-opacity="0" result="BackgroundImageFix"/>
<feColorMatrix in="SourceAlpha" type="matrix" values="0 0 0 0 0 0 0 0 0 0 0 0 0 0 0 0 0 0 127 0" result="hardAlpha"/>
<feOffset dy="11"/>
<feGaussianBlur stdDeviation="7.35"/>
<feComposite in2="hardAlpha" operator="out"/>
<feColorMatrix type="matrix" values="0 0 0 0 0 0 0 0 0 0 0 0 0 0 0 0 0 0 0.17 0"/>
<feBlend mode="normal" in2="BackgroundImageFix" result="effect1_dropShadow_228_820"/>
<feBlend mode="normal" in="SourceGraphic" in2="effect1_dropShadow_228_820" result="shape"/>
</filter>
<filter id="filter1_d_228_820" x="61.0745" y="383.852" width="39.4025" height="39.4025" filterUnits="userSpaceOnUse" color-interpolation-filters="sRGB">
<feFlood flood-opacity="0" result="BackgroundImageFix"/>
<feColorMatrix in="SourceAlpha" type="matrix" values="0 0 0 0 0 0 0 0 0 0 0 0 0 0 0 0 0 0 127 0" result="hardAlpha"/>
<feOffset dy="11"/>
<feGaussianBlur stdDeviation="7.35"/>
<feComposite in2="hardAlpha" operator="out"/>
<feColorMatrix type="matrix" values="0 0 0 0 0 0 0 0 0 0 0 0 0 0 0 0 0 0 0.17 0"/>
<feBlend mode="normal" in2="BackgroundImageFix" result="effect1_dropShadow_228_820"/>
<feBlend mode="normal" in="SourceGraphic" in2="effect1_dropShadow_228_820" result="shape"/>
</filter>
<filter id="filter2_d_228_820" x="117.135" y="367.815" width="39.4025" height="39.4025" filterUnits="userSpaceOnUse" color-interpolation-filters="sRGB">
<feFlood flood-opacity="0" result="BackgroundImageFix"/>
<feColorMatrix in="SourceAlpha" type="matrix" values="0 0 0 0 0 0 0 0 0 0 0 0 0 0 0 0 0 0 127 0" result="hardAlpha"/>
<feOffset dy="11"/>
<feGaussianBlur stdDeviation="7.35"/>
<feComposite in2="hardAlpha" operator="out"/>
<feColorMatrix type="matrix" values="0 0 0 0 0 0 0 0 0 0 0 0 0 0 0 0 0 0 0.17 0"/>
<feBlend mode="normal" in2="BackgroundImageFix" result="effect1_dropShadow_228_820"/>
<feBlend mode="normal" in="SourceGraphic" in2="effect1_dropShadow_228_820" result="shape"/>
</filter>
<filter id="filter3_d_228_820" x="157.667" y="409.734" width="39.4025" height="39.4025" filterUnits="userSpaceOnUse" color-interpolation-filters="sRGB">
<feFlood flood-opacity="0" result="BackgroundImageFix"/>
<feColorMatrix in="SourceAlpha" type="matrix" values="0 0 0 0 0 0 0 0 0 0 0 0 0 0 0 0 0 0 127 0" result="hardAlpha"/>
<feOffset dy="11"/>
<feGaussianBlur stdDeviation="7.35"/>
<feComposite in2="hardAlpha" operator="out"/>
<feColorMatrix type="matrix" values="0 0 0 0 0 0 0 0 0 0 0 0 0 0 0 0 0 0 0.17 0"/>
<feBlend mode="normal" in2="BackgroundImageFix" result="effect1_dropShadow_228_820"/>
<feBlend mode="normal" in="SourceGraphic" in2="effect1_dropShadow_228_820" result="shape"/>
</filter>
<filter id="filter4_d_228_820" x="238.223" y="379.555" width="39.4025" height="39.4025" filterUnits="userSpaceOnUse" color-interpolation-filters="sRGB">
<feFlood flood-opacity="0" result="BackgroundImageFix"/>
<feColorMatrix in="SourceAlpha" type="matrix" values="0 0 0 0 0 0 0 0 0 0 0 0 0 0 0 0 0 0 127 0" result="hardAlpha"/>
<feOffset dy="11"/>
<feGaussianBlur stdDeviation="7.35"/>
<feComposite in2="hardAlpha" operator="out"/>
<feColorMatrix type="matrix" values="0 0 0 0 0 0 0 0 0 0 0 0 0 0 0 0 0 0 0.17 0"/>
<feBlend mode="normal" in2="BackgroundImageFix" result="effect1_dropShadow_228_820"/>
<feBlend mode="normal" in="SourceGraphic" in2="effect1_dropShadow_228_820" result="shape"/>
</filter>
<filter id="filter5_d_228_820" x="303.943" y="366.106" width="39.4025" height="39.4025" filterUnits="userSpaceOnUse" color-interpolation-filters="sRGB">
<feFlood flood-opacity="0" result="BackgroundImageFix"/>
<feColorMatrix in="SourceAlpha" type="matrix" values="0 0 0 0 0 0 0 0 0 0 0 0 0 0 0 0 0 0 127 0" result="hardAlpha"/>
<feOffset dy="11"/>
<feGaussianBlur stdDeviation="7.35"/>
<feComposite in2="hardAlpha" operator="out"/>
<feColorMatrix type="matrix" values="0 0 0 0 0 0 0 0 0 0 0 0 0 0 0 0 0 0 0.17 0"/>
<feBlend mode="normal" in2="BackgroundImageFix" result="effect1_dropShadow_228_820"/>
<feBlend mode="normal" in="SourceGraphic" in2="effect1_dropShadow_228_820" result="shape"/>
</filter>
<filter id="filter6_d_228_820" x="322.06" y="298.491" width="39.4025" height="39.4025" filterUnits="userSpaceOnUse" color-interpolation-filters="sRGB">
<feFlood flood-opacity="0" result="BackgroundImageFix"/>
<feColorMatrix in="SourceAlpha" type="matrix" values="0 0 0 0 0 0 0 0 0 0 0 0 0 0 0 0 0 0 127 0" result="hardAlpha"/>
<feOffset dy="11"/>
<feGaussianBlur stdDeviation="7.35"/>
<feComposite in2="hardAlpha" operator="out"/>
<feColorMatrix type="matrix" values="0 0 0 0 0 0 0 0 0 0 0 0 0 0 0 0 0 0 0.17 0"/>
<feBlend mode="normal" in2="BackgroundImageFix" result="effect1_dropShadow_228_820"/>
<feBlend mode="normal" in="SourceGraphic" in2="effect1_dropShadow_228_820" result="shape"/>
</filter>
<filter id="filter7_d_228_820" x="368.462" y="279.866" width="39.4025" height="39.4025" filterUnits="userSpaceOnUse" color-interpolation-filters="sRGB">
<feFlood flood-opacity="0" result="BackgroundImageFix"/>
<feColorMatrix in="SourceAlpha" type="matrix" values="0 0 0 0 0 0 0 0 0 0 0 0 0 0 0 0 0 0 127 0" result="hardAlpha"/>
<feOffset dy="11"/>
<feGaussianBlur stdDeviation="7.35"/>
<feComposite in2="hardAlpha" operator="out"/>
<feColorMatrix type="matrix" values="0 0 0 0 0 0 0 0 0 0 0 0 0 0 0 0 0 0 0.17 0"/>
<feBlend mode="normal" in2="BackgroundImageFix" result="effect1_dropShadow_228_820"/>
<feBlend mode="normal" in="SourceGraphic" in2="effect1_dropShadow_228_820" result="shape"/>
</filter>
<filter id="filter8_d_228_820" x="340.178" y="230.876" width="39.4025" height="39.4025" filterUnits="userSpaceOnUse" color-interpolation-filters="sRGB">
<feFlood flood-opacity="0" result="BackgroundImageFix"/>
<feColorMatrix in="SourceAlpha" type="matrix" values="0 0 0 0 0 0 0 0 0 0 0 0 0 0 0 0 0 0 127 0" result="hardAlpha"/>
<feOffset dy="11"/>
<feGaussianBlur stdDeviation="7.35"/>
<feComposite in2="hardAlpha" operator="out"/>
<feColorMatrix type="matrix" values="0 0 0 0 0 0 0 0 0 0 0 0 0 0 0 0 0 0 0.17 0"/>
<feBlend mode="normal" in2="BackgroundImageFix" result="effect1_dropShadow_228_820"/>
<feBlend mode="normal" in="SourceGraphic" in2="effect1_dropShadow_228_820" result="shape"/>
</filter>
<filter id="filter9_d_228_820" x="374.332" y="219.322" width="39.4025" height="39.4025" filterUnits="userSpaceOnUse" color-interpolation-filters="sRGB">
<feFlood flood-opacity="0" result="BackgroundImageFix"/>
<feColorMatrix in="SourceAlpha" type="matrix" values="0 0 0 0 0 0 0 0 0 0 0 0 0 0 0 0 0 0 127 0" result="hardAlpha"/>
<feOffset dy="11"/>
<feGaussianBlur stdDeviation="7.35"/>
<feComposite in2="hardAlpha" operator="out"/>
<feColorMatrix type="matrix" values="0 0 0 0 0 0 0 0 0 0 0 0 0 0 0 0 0 0 0.17 0"/>
<feBlend mode="normal" in2="BackgroundImageFix" result="effect1_dropShadow_228_820"/>
<feBlend mode="normal" in="SourceGraphic" in2="effect1_dropShadow_228_820" result="shape"/>
</filter>
<filter id="filter10_d_228_820" x="314.482" y="172.227" width="39.4025" height="39.4025" filterUnits="userSpaceOnUse" color-interpolation-filters="sRGB">
<feFlood flood-opacity="0" result="BackgroundImageFix"/>
<feColorMatrix in="SourceAlpha" type="matrix" values="0 0 0 0 0 0 0 0 0 0 0 0 0 0 0 0 0 0 127 0" result="hardAlpha"/>
<feOffset dy="11"/>
<feGaussianBlur stdDeviation="7.35"/>
<feComposite in2="hardAlpha" operator="out"/>
<feColorMatrix type="matrix" values="0 0 0 0 0 0 0 0 0 0 0 0 0 0 0 0 0 0 0.17 0"/>
<feBlend mode="normal" in2="BackgroundImageFix" result="effect1_dropShadow_228_820"/>
<feBlend mode="normal" in="SourceGraphic" in2="effect1_dropShadow_228_820" result="shape"/>
</filter>
<filter id="filter11_d_228_820" x="351.224" y="151.014" width="39.4025" height="39.4025" filterUnits="userSpaceOnUse" color-interpolation-filters="sRGB">
<feFlood flood-opacity="0" result="BackgroundImageFix"/>
<feColorMatrix in="SourceAlpha" type="matrix" values="0 0 0 0 0 0 0 0 0 0 0 0 0 0 0 0 0 0 127 0" result="hardAlpha"/>
<feOffset dy="11"/>
<feGaussianBlur stdDeviation="7.35"/>
<feComposite in2="hardAlpha" operator="out"/>
<feColorMatrix type="matrix" values="0 0 0 0 0 0 0 0 0 0 0 0 0 0 0 0 0 0 0.17 0"/>
<feBlend mode="normal" in2="BackgroundImageFix" result="effect1_dropShadow_228_820"/>
<feBlend mode="normal" in="SourceGraphic" in2="effect1_dropShadow_228_820" result="shape"/>
</filter>
<clipPath id="clip0_228_820">
<rect width="450" height="442" fill="white"/>
</clipPath>
</defs>
</svg>
