<svg preserveAspectRatio="none" width="100%" height="100%" overflow="visible" style="display: block;" viewBox="0 0 111.276 22" fill="none" xmlns="http://www.w3.org/2000/svg">
<g id="orangedata">
<path id="Vector" d="M99.672 13.7171C99.672 12.5521 100.03 11.6424 100.746 10.988C101.478 10.3337 102.497 10.0065 103.805 10.0065H107.82V8.8814C107.82 7.50889 107.065 6.82264 105.556 6.82264C104.824 6.82264 104.279 6.95031 103.921 7.20566C103.563 7.44505 103.361 7.81212 103.314 8.30686H100.022C100.053 6.87052 100.551 5.78528 101.516 5.05115C102.482 4.31702 103.882 3.95793 105.719 3.97389C106.56 3.97389 107.314 4.07763 107.984 4.2851C108.669 4.47661 109.252 4.7559 109.735 5.12296C110.233 5.47407 110.614 5.90497 110.879 6.41567C111.143 6.91041 111.276 7.46101 111.276 8.06747V17.3558H108.544L108.03 15.8237C107.174 17.0047 105.875 17.5952 104.131 17.5952C102.762 17.5952 101.672 17.2521 100.863 16.5658C100.069 15.8636 99.672 14.914 99.672 13.7171ZM107.82 12.0174H104.879C104.349 12.0174 103.929 12.1531 103.618 12.4244C103.322 12.6957 103.174 13.0628 103.174 13.5256C103.174 13.9884 103.338 14.3555 103.664 14.6268C103.991 14.8821 104.443 15.0098 105.019 15.0098C105.672 15.0098 106.248 14.8422 106.746 14.5071C107.244 14.156 107.602 13.7011 107.82 13.1426V12.0174Z" fill="var(--fill-0, #4C1D96)"/>
<path id="Vector_2" d="M95.7042 12.3526C95.7042 13.1026 95.8599 13.6453 96.1712 13.9804C96.4825 14.2996 96.9883 14.4592 97.6888 14.4592C98.0001 14.4592 98.2958 14.4512 98.576 14.4353C98.8561 14.4193 99.1052 14.3954 99.3231 14.3634V17.4276C99.2297 17.4436 99.0896 17.4596 98.9028 17.4755C98.7161 17.5074 98.5059 17.5314 98.2724 17.5473C98.0545 17.5633 97.8288 17.5713 97.5954 17.5713C97.3775 17.5872 97.1751 17.5952 96.9883 17.5952C93.8286 17.5952 92.2488 16.1429 92.2488 13.2383V6.75081H90.0074V4.18933H92.2488V1.24482L95.7042 0.478772V4.18933H99.2297V6.75081H95.7042V12.3526Z" fill="var(--fill-0, #4C1D96)"/>
<path id="Vector_3" d="M77.7026 13.7171C77.7026 12.5521 78.0605 11.6424 78.7765 10.988C79.5081 10.3337 80.5276 10.0065 81.8351 10.0065H85.8508V8.8814C85.8508 7.50889 85.0959 6.82264 83.5861 6.82264C82.8546 6.82264 82.3098 6.95031 81.9518 7.20566C81.5938 7.44505 81.3915 7.81212 81.3448 8.30686H78.0528C78.0839 6.87052 78.582 5.78528 79.547 5.05115C80.512 4.31702 81.9129 3.95793 83.7496 3.97389C84.5901 3.97389 85.345 4.07763 86.0143 4.2851C86.6991 4.47661 87.2828 4.7559 87.7653 5.12296C88.2634 5.47407 88.6448 5.90497 88.9094 6.41567C89.174 6.91041 89.3063 7.46101 89.3063 8.06747V17.3558H86.5746L86.061 15.8237C85.2049 17.0047 83.9052 17.5952 82.1619 17.5952C80.7922 17.5952 79.7027 17.2521 78.8933 16.5658C78.0995 15.8636 77.7026 14.914 77.7026 13.7171ZM85.8508 12.0174H82.909C82.3798 12.0174 81.9596 12.1531 81.6483 12.4244C81.3525 12.6957 81.2047 13.0628 81.2047 13.5256C81.2047 13.9884 81.3681 14.3555 81.695 14.6268C82.0218 14.8821 82.4732 15.0098 83.0491 15.0098C83.7029 15.0098 84.2788 14.8422 84.7768 14.5071C85.2749 14.156 85.6329 13.7011 85.8508 13.1426V12.0174Z" fill="var(--fill-0, #4C1D96)"/>
<path id="Vector_4" d="M73.6109 17.3558L73.1907 15.9674C72.7393 16.3983 72.1867 16.7813 71.533 17.1164C70.8792 17.4356 70.0777 17.5952 69.1282 17.5952C67.167 17.5952 65.665 17.0047 64.6221 15.8237C63.5948 14.6427 63.0812 12.959 63.0812 10.7726C63.0812 8.53827 63.5793 6.84658 64.5754 5.6975C65.5871 4.53247 67.0658 3.94995 69.0115 3.94995C69.8053 3.94995 70.5135 4.06167 71.1361 4.2851C71.7587 4.49257 72.3268 4.80378 72.8404 5.21872V4.56586e-06H76.2959V17.3558H73.6109ZM72.8404 8.66595C72.3891 8.09141 71.9065 7.67647 71.3929 7.42112C70.8948 7.16577 70.3423 7.03809 69.7352 7.03809C67.6495 7.03809 66.6067 8.27494 66.6067 10.7486C66.6067 11.9616 66.8713 12.8872 67.4005 13.5256C67.9297 14.148 68.7079 14.4592 69.7352 14.4592C70.3578 14.4592 70.926 14.3315 71.4396 14.0762C71.9688 13.8208 72.4358 13.4139 72.8404 12.8553V8.66595Z" fill="var(--fill-0, #4C1D96)"/>
<path id="Vector_5" d="M56.2305 17.5952C54.0825 17.5952 52.4404 17.0127 51.3042 15.8477C50.1679 14.6667 49.5998 12.967 49.5998 10.7486C49.5998 8.54624 50.1602 6.86252 51.2808 5.69749C52.4015 4.53246 54.0047 3.94994 56.0904 3.94994C58.0361 3.94994 59.5459 4.44468 60.6198 5.43416C61.6938 6.42364 62.2697 7.82009 62.3476 9.6235C62.3631 10.0384 62.3631 10.4215 62.3476 10.7726C62.332 11.1077 62.3086 11.403 62.2775 11.6583H53.1486C53.351 13.6852 54.3938 14.6986 56.2772 14.6986C57.6469 14.6986 58.4952 14.1719 58.8221 13.1186H62.1841C61.5927 16.103 59.6081 17.5952 56.2305 17.5952ZM59.0556 9.52774C59.0244 8.68189 58.752 8.01958 58.2384 7.5408C57.7248 7.06202 57.0243 6.82263 56.1371 6.82263C54.4561 6.82263 53.4755 7.72433 53.1953 9.52774H59.0556Z" fill="var(--fill-0, #FA7415)"/>
<path id="Vector_6" d="M44.8001 14.7465C43.8039 15.5763 42.621 15.9913 41.2512 15.9913C39.3056 15.9913 37.8269 15.4886 36.8152 14.4831C35.8035 13.4617 35.2976 11.9695 35.2976 10.0065C35.2976 8.0116 35.7879 6.50344 36.7685 5.48204C37.7491 4.46064 39.1967 3.94994 41.1112 3.94994C42.6832 3.94994 44.0374 4.4367 45.1736 5.41022L45.5705 4.18933H48.2555V15.8955C48.2555 17.8905 47.7185 19.4066 46.6445 20.444C45.5861 21.4813 44.0374 22 41.9984 22C40.1773 22 38.7453 21.5851 37.7024 20.7552C36.6751 19.9412 36.107 18.7682 35.9981 17.2361H39.5469C39.578 17.8266 39.8037 18.2974 40.224 18.6485C40.6598 18.9996 41.2746 19.1752 42.0684 19.1752C43.0334 19.1752 43.7261 18.9119 44.1463 18.3852C44.5822 17.8745 44.8001 17.0446 44.8001 15.8955V14.7465ZM44.8001 8.59412C43.9907 7.55676 43.0023 7.03808 41.8349 7.03808C40.7921 7.03808 40.0294 7.28545 39.5469 7.78019C39.0644 8.27493 38.8231 9.033 38.8231 10.0544C38.8231 12.0493 39.8348 13.0468 41.8583 13.0468C43.0568 13.0468 44.0374 12.5361 44.8001 11.5147V8.59412Z" fill="var(--fill-0, #FA7415)"/>
<path id="Vector_7" d="M21.8327 4.18933H24.5643L25.1013 5.79325C25.6305 5.20275 26.222 4.74791 26.8757 4.42872C27.545 4.10953 28.3466 3.94994 29.2805 3.94994C29.9965 3.94994 30.6425 4.07761 31.2184 4.33296C31.8098 4.57235 32.3079 4.91548 32.7126 5.36234C33.1329 5.80921 33.452 6.34385 33.6699 6.96626C33.9033 7.58868 34.0201 8.27493 34.0201 9.02502V17.3558H30.5646V9.86289C30.5646 7.96372 29.7319 7.01414 28.0665 7.01414C27.5528 7.01414 27.0547 7.15777 26.5722 7.44504C26.1053 7.73231 25.6772 8.14726 25.2881 8.68987V17.3558H21.8327V4.18933Z" fill="var(--fill-0, #FA7415)"/>
<path id="Vector_8" d="M8.24368 13.7171C8.24368 12.5521 8.60167 11.6424 9.31766 10.988C10.0492 10.3337 11.0687 10.0065 12.3762 10.0065H16.392V8.8814C16.392 7.50889 15.6371 6.82264 14.1273 6.82264C13.3957 6.82264 12.8509 6.95031 12.4929 7.20566C12.1349 7.44505 11.9326 7.81212 11.8859 8.30686H8.59389C8.62502 6.87052 9.1231 5.78528 10.0881 5.05115C11.0532 4.31702 12.454 3.95793 14.2907 3.97389C15.1312 3.97389 15.8861 4.07763 16.5554 4.2851C17.2403 4.47661 17.8239 4.7559 18.3065 5.12296C18.8045 5.47407 19.1859 5.90497 19.4505 6.41567C19.7151 6.91041 19.8474 7.46101 19.8474 8.06747V17.3558H17.1157L16.6021 15.8237C15.746 17.0047 14.4463 17.5952 12.7031 17.5952C11.3333 17.5952 10.2438 17.2521 9.4344 16.5658C8.64059 15.8636 8.24368 14.914 8.24368 13.7171ZM16.392 12.0174H13.4502C12.921 12.0174 12.5007 12.1531 12.1894 12.4244C11.8937 12.6957 11.7458 13.0628 11.7458 13.5256C11.7458 13.9884 11.9092 14.3555 12.2361 14.6268C12.563 14.8821 13.0144 15.0098 13.5903 15.0098C14.244 15.0098 14.8199 14.8422 15.318 14.5071C15.8161 14.156 16.1741 13.7011 16.392 13.1426V12.0174Z" fill="var(--fill-0, #FA7415)"/>
<path id="Vector_9" d="M0 4.18933H2.8017L3.3387 5.79325C4.25703 4.56437 5.47889 3.94994 7.00426 3.94994C7.09765 3.94994 7.22217 3.95792 7.37782 3.97388C7.54903 3.97388 7.68134 3.98984 7.77473 4.02175V7.34929C7.65021 7.31737 7.47899 7.29343 7.26108 7.27747C7.04317 7.26151 6.85639 7.25353 6.70074 7.25353C5.65788 7.25353 4.85629 7.56474 4.29594 8.18715C3.7356 8.79361 3.45543 9.68734 3.45543 10.8683V17.3558H0V4.18933Z" fill="var(--fill-0, #FA7415)"/>
</g>
</svg>
