<svg preserveAspectRatio="none" width="100%" height="100%" overflow="visible" style="display: block;" viewBox="0 0 13 14.3333" fill="none" xmlns="http://www.w3.org/2000/svg">
<g id="Vector">
<path d="M3.33333 7.83333C3.33333 7.61232 3.24547 7.40042 3.08919 7.24414C2.93291 7.08786 2.72101 7 2.5 7H1V9.83333C1 10.0543 1.08786 10.2662 1.24414 10.4225C1.40042 10.5788 1.61232 10.6667 1.83333 10.6667H2.5C2.72101 10.6667 2.93291 10.5788 3.08919 10.4225C3.24547 10.2662 3.33333 10.0543 3.33333 9.83333V7.83333ZM4.33333 9.83333C4.33333 10.3196 4.14004 10.7857 3.79622 11.1296C3.45241 11.4734 2.98623 11.6667 2.5 11.6667H1.83333C1.3471 11.6667 0.880926 11.4734 0.537109 11.1296C0.193293 10.7857 0 10.3196 0 9.83333V6.5C0 5.64641 0.168136 4.80099 0.494792 4.01237C0.821446 3.22382 1.30011 2.50718 1.90365 1.90365C2.50719 1.30011 3.22382 0.821446 4.01237 0.494792C4.80099 0.168136 5.64641 0 6.5 0C7.35359 0 8.19901 0.168136 8.98763 0.494792C9.77618 0.821446 10.4928 1.30011 11.0964 1.90365C11.6999 2.50718 12.1786 3.22382 12.5052 4.01237C12.8319 4.80099 13 5.64641 13 6.5V9.83333C13 10.3196 12.8067 10.7857 12.4629 11.1296C12.1191 11.4734 11.6529 11.6667 11.1667 11.6667H10.5C10.0138 11.6667 9.54759 11.4734 9.20378 11.1296C8.85996 10.7857 8.66667 10.3196 8.66667 9.83333V7.83333C8.66667 7.3471 8.85996 6.88093 9.20378 6.53711C9.54759 6.19329 10.0138 6 10.5 6H11.9766C11.9263 5.44916 11.7938 4.90797 11.5814 4.39518C11.305 3.72791 10.9 3.12139 10.3893 2.61068C9.87861 2.09996 9.2721 1.69502 8.60482 1.41862C7.93753 1.14222 7.22227 1 6.5 1C5.77773 1 5.06247 1.14222 4.39518 1.41862C3.72791 1.69502 3.12139 2.09996 2.61068 2.61068C2.09996 3.12139 1.69502 3.72791 1.41862 4.39518C1.20622 4.90797 1.07373 5.44916 1.02344 6H2.5C2.98623 6 3.45241 6.19329 3.79622 6.53711C4.14004 6.88093 4.33333 7.3471 4.33333 7.83333V9.83333ZM9.66667 9.83333C9.66667 10.0543 9.75453 10.2662 9.91081 10.4225C10.0671 10.5788 10.279 10.6667 10.5 10.6667H11.1667C11.3877 10.6667 11.5996 10.5788 11.7559 10.4225C11.9121 10.2662 12 10.0543 12 9.83333V7H10.5C10.279 7 10.0671 7.08786 9.91081 7.24414C9.75453 7.40042 9.66667 7.61232 9.66667 7.83333V9.83333Z" fill="var(--fill-0, #64748B)"/>
<path d="M12 11.1667V9.83333C12 9.55719 12.2239 9.33333 12.5 9.33333C12.7761 9.33333 13 9.55719 13 9.83333V11.1667C13 12.0065 12.6661 12.8117 12.0723 13.4056C11.4784 13.9995 10.6732 14.3333 9.83333 14.3333H6.5C6.22386 14.3333 6 14.1095 6 13.8333C6 13.5572 6.22386 13.3333 6.5 13.3333H9.83333C10.408 13.3333 10.9589 13.1049 11.3652 12.6986C11.7716 12.2922 12 11.7413 12 11.1667Z" fill="var(--fill-0, #64748B)"/>
</g>
</svg>
