<svg preserveAspectRatio="none" width="100%" height="100%" overflow="visible" style="display: block;" viewBox="0 0 20.4999 19.5" fill="none" xmlns="http://www.w3.org/2000/svg">
<g id="Vector">
<path d="M0 16.75V2.75C0 2.02065 0.289939 1.32139 0.805664 0.805664C1.32139 0.289939 2.02065 0 2.75 0H15.0938C15.508 0 15.8438 0.335786 15.8438 0.75C15.8438 1.16421 15.508 1.5 15.0938 1.5H2.75C2.41848 1.5 2.10063 1.63179 1.86621 1.86621C1.63179 2.10063 1.5 2.41848 1.5 2.75V16.75C1.5 17.0815 1.63179 17.3994 1.86621 17.6338C2.10063 17.8682 2.41848 18 2.75 18H16.75C17.0815 18 17.3994 17.8682 17.6338 17.6338C17.8682 17.3994 18 17.0815 18 16.75V8.40625C18 7.99204 18.3358 7.65625 18.75 7.65625C19.1642 7.65625 19.5 7.99204 19.5 8.40625V16.75C19.5 17.4793 19.2101 18.1786 18.6943 18.6943C18.1786 19.2101 17.4793 19.5 16.75 19.5H2.75C2.02065 19.5 1.32139 19.2101 0.805664 18.6943C0.289939 18.1786 0 17.4793 0 16.75Z" fill="var(--fill-0, #22C55E)"/>
<path d="M19.2197 1.21973C19.5126 0.926833 19.9874 0.926833 20.2803 1.21973C20.5732 1.51262 20.5732 1.98738 20.2803 2.28027L10.2803 12.2803C9.98738 12.5732 9.51262 12.5732 9.21973 12.2803L6.21973 9.28027C5.92683 8.98738 5.92683 8.51262 6.21973 8.21973C6.51262 7.92683 6.98738 7.92683 7.28027 8.21973L9.75 10.6895L19.2197 1.21973Z" fill="var(--fill-0, #22C55E)"/>
</g>
</svg>
