<svg preserveAspectRatio="none" width="100%" height="100%" overflow="visible" style="display: block;" viewBox="0 0 14.3333 11.667" fill="none" xmlns="http://www.w3.org/2000/svg">
<g id="Vector">
<path d="M9.222 4.67006C9.49638 4.70063 9.6939 4.94774 9.66341 5.22215L8.99674 11.2221C8.96618 11.4965 8.71907 11.694 8.44466 11.6636C8.17028 11.633 7.97277 11.3859 8.00325 11.1115L8.66992 5.11147C8.70049 4.83709 8.9476 4.63957 9.222 4.67006Z" fill="var(--fill-0, white)"/>
<path d="M8.91862 0.0658975C9.15837 -0.0710512 9.46392 0.0123601 9.60091 0.252095L12.2676 4.91876C12.4045 5.15851 12.3211 5.46406 12.0814 5.60105C11.8416 5.738 11.5361 5.65459 11.3991 5.41486L8.73242 0.748189C8.59547 0.508441 8.67888 0.202889 8.91862 0.0658975Z" fill="var(--fill-0, white)"/>
<path d="M13.8333 4.66681C14.1095 4.66681 14.3333 4.89067 14.3333 5.16681C14.3333 5.44295 14.1095 5.66681 13.8333 5.66681H0.5C0.223858 5.66681 0 5.44295 0 5.16681C0 4.89067 0.223858 4.66681 0.5 4.66681H13.8333Z" fill="var(--fill-0, white)"/>
<path d="M12.4128 5.05483C12.4746 4.78582 12.7427 4.61754 13.0117 4.67918C13.2809 4.74101 13.4492 5.00966 13.3874 5.27879L12.2539 10.2124L12.2533 10.2117C12.1657 10.6273 11.9372 10.9997 11.6055 11.2651C11.2732 11.531 10.8589 11.6723 10.4336 11.6662L3.89974 11.6668C3.47445 11.673 3.06016 11.531 2.72786 11.2651C2.39293 10.9971 2.16253 10.6203 2.07682 10.2L1.01107 5.27228C0.95286 5.00245 1.1247 4.73622 1.39453 4.67788C1.66436 4.61967 1.93059 4.79151 1.98893 5.06134L3.05534 9.99428L3.05664 10.0001C3.09559 10.1911 3.20004 10.3627 3.35221 10.4845C3.50448 10.6063 3.69502 10.6707 3.88997 10.6668H10.4434C10.6383 10.6707 10.8289 10.6063 10.9811 10.4845C11.1333 10.3627 11.2377 10.1911 11.2767 10.0001C11.2775 9.99622 11.2784 9.99232 11.2793 9.98842L12.4128 5.05483Z" fill="var(--fill-0, white)"/>
<path d="M12.1667 7.66681C12.4428 7.66681 12.6667 7.89067 12.6667 8.16681C12.6667 8.44295 12.4428 8.66681 12.1667 8.66681H2.16667C1.89052 8.66681 1.66667 8.44295 1.66667 8.16681C1.66667 7.89067 1.89052 7.66681 2.16667 7.66681H12.1667Z" fill="var(--fill-0, white)"/>
<path d="M4.73242 0.252095C4.86941 0.0123601 5.17496 -0.0710512 5.41471 0.0658975C5.65445 0.202889 5.73786 0.508441 5.60091 0.748189L2.93424 5.41486C2.79725 5.65459 2.4917 5.738 2.25195 5.60105C2.01222 5.46406 1.92881 5.15851 2.06575 4.91876L4.73242 0.252095Z" fill="var(--fill-0, white)"/>
<path d="M5.11133 4.67006C5.38573 4.63957 5.63285 4.83709 5.66341 5.11147L6.33008 11.1115C6.36057 11.3859 6.16305 11.633 5.88867 11.6636C5.61427 11.694 5.36715 11.4965 5.33659 11.2221L4.66992 5.22215C4.63943 4.94774 4.83695 4.70063 5.11133 4.67006Z" fill="var(--fill-0, white)"/>
</g>
</svg>
