<svg preserveAspectRatio="none" width="100%" height="100%" overflow="visible" style="display: block;" viewBox="0 0 13.4999 13.4999" fill="none" xmlns="http://www.w3.org/2000/svg">
<g id="Vector">
<path d="M12.2197 0.21967C12.5126 -0.0732233 12.9873 -0.0732233 13.2802 0.21967C13.5731 0.512563 13.5731 0.987324 13.2802 1.28022L1.28022 13.2802C0.987324 13.5731 0.512563 13.5731 0.21967 13.2802C-0.0732233 12.9873 -0.0732233 12.5126 0.21967 12.2197L12.2197 0.21967Z" fill="var(--fill-0, #94A3B8)"/>
<path d="M0.21967 0.21967C0.512563 -0.0732233 0.987324 -0.0732233 1.28022 0.21967L13.2802 12.2197C13.5731 12.5126 13.5731 12.9873 13.2802 13.2802C12.9873 13.5731 12.5126 13.5731 12.2197 13.2802L0.21967 1.28022C-0.0732233 0.987324 -0.0732233 0.512563 0.21967 0.21967Z" fill="var(--fill-0, #94A3B8)"/>
</g>
</svg>
