<svg preserveAspectRatio="none" width="100%" height="100%" overflow="visible" style="display: block;" viewBox="0 0 17.1689 16.5611" fill="none" xmlns="http://www.w3.org/2000/svg">
<g id="O">
<path id="Vector" d="M5.86641 0.000106037C6.48135 0.159579 8.4681 1.32349 8.90927 1.80295C9.64539 2.60269 9.32873 3.41408 8.5426 4.06544C7.36025 4.62179 5.97888 3.72677 5.5729 2.56324C5.21905 1.54923 5.43911 0.947084 5.86641 0.000106037Z" fill="var(--fill-0, #4C1D96)"/>
<path id="Subtract" fill-rule="evenodd" clip-rule="evenodd" d="M10.5619 3.44227C15.34 3.4533 17.808 6.94903 17.0261 11.422C16.2573 15.82 13.154 16.616 9.28666 16.5581C7.05323 16.4414 3.85054 16.6106 2.13653 15.1347C-1.44427 12.051 -0.518378 4.27605 4.8723 3.76117C5.01551 3.74748 5.15869 3.73509 5.30174 3.72234C5.59233 4.10439 5.96277 4.42614 6.37666 4.65419C7.09487 5.04988 8.01226 5.19529 8.88673 4.78387L8.97894 4.74039L9.05731 4.67542C9.44594 4.35341 9.80562 3.9431 9.993 3.44874C10.1826 3.44566 10.3723 3.44341 10.5619 3.44227ZM12.501 7.29884C11.6374 6.31102 10.3144 6.30406 9.10955 6.46173C8.07226 6.54051 5.24246 6.55688 4.57032 7.32343C3.62735 8.39907 3.63198 11.9951 4.82475 12.9712C5.38173 13.4266 7.39981 13.3933 8.25327 13.4672C9.42224 13.5529 11.3967 13.8021 12.3155 12.9275C13.5896 11.7147 13.6616 8.62655 12.501 7.29884Z" fill="var(--fill-0, #FA7415)"/>
</g>
</svg>
