<svg width="130" height="22" viewBox="0 0 130 22" fill="none" xmlns="http://www.w3.org/2000/svg">
<g clip-path="url(#clip0_106_297)">
<path d="M118.396 13.7171C118.396 12.5521 118.754 11.6424 119.47 10.988C120.202 10.3337 121.221 10.0065 122.529 10.0065H126.544V8.88141C126.544 7.5089 125.789 6.82265 124.28 6.82265C123.548 6.82265 123.003 6.95032 122.645 7.20567C122.287 7.44506 122.085 7.81213 122.038 8.30687H118.746C118.777 6.87053 119.275 5.78529 120.24 5.05116C121.205 4.31702 122.606 3.95794 124.443 3.9739C125.284 3.9739 126.038 4.07763 126.708 4.28511C127.393 4.47662 127.976 4.75591 128.459 5.12297C128.957 5.47408 129.338 5.90498 129.603 6.41568C129.867 6.91042 130 7.46102 130 8.06748V17.3558H127.268L126.754 15.8237C125.898 17.0047 124.599 17.5952 122.855 17.5952C121.486 17.5952 120.396 17.2521 119.587 16.5658C118.793 15.8636 118.396 14.9141 118.396 13.7171ZM126.544 12.0174H123.602C123.073 12.0174 122.653 12.1531 122.342 12.4244C122.046 12.6957 121.898 13.0628 121.898 13.5256C121.898 13.9884 122.062 14.3555 122.388 14.6268C122.715 14.8821 123.167 15.0098 123.743 15.0098C124.396 15.0098 124.972 14.8422 125.47 14.5071C125.968 14.156 126.326 13.7011 126.544 13.1426V12.0174Z" fill="#4C1D96"/>
<path d="M114.428 12.3525C114.428 13.1026 114.584 13.6452 114.895 13.9804C115.206 14.2996 115.712 14.4592 116.413 14.4592C116.724 14.4592 117.02 14.4512 117.3 14.4352C117.58 14.4193 117.829 14.3953 118.047 14.3634V17.4276C117.954 17.4436 117.814 17.4595 117.627 17.4755C117.44 17.5074 117.23 17.5314 116.996 17.5473C116.779 17.5633 116.553 17.5713 116.319 17.5713C116.101 17.5872 115.899 17.5952 115.712 17.5952C112.553 17.5952 110.973 16.1429 110.973 13.2383V6.7508H108.731V4.18932H110.973V1.24481L114.428 0.47876V4.18932H117.954V6.7508H114.428V12.3525Z" fill="#4C1D96"/>
<path d="M96.4268 13.7171C96.4268 12.5521 96.7847 11.6424 97.5007 10.988C98.2323 10.3337 99.2518 10.0065 100.559 10.0065H104.575V8.88141C104.575 7.5089 103.82 6.82265 102.31 6.82265C101.579 6.82265 101.034 6.95032 100.676 7.20567C100.318 7.44506 100.116 7.81213 100.069 8.30687H96.777C96.8081 6.87053 97.3062 5.78529 98.2712 5.05116C99.2362 4.31702 100.637 3.95794 102.474 3.9739C103.314 3.9739 104.069 4.07763 104.738 4.28511C105.423 4.47662 106.007 4.75591 106.49 5.12297C106.988 5.47408 107.369 5.90498 107.634 6.41568C107.898 6.91042 108.03 7.46102 108.03 8.06748V17.3558H105.299L104.785 15.8237C103.929 17.0047 102.629 17.5952 100.886 17.5952C99.5164 17.5952 98.4269 17.2521 97.6175 16.5658C96.8237 15.8636 96.4268 14.9141 96.4268 13.7171ZM104.575 12.0174H101.633C101.104 12.0174 100.684 12.1531 100.372 12.4244C100.077 12.6957 99.9289 13.0628 99.9289 13.5256C99.9289 13.9884 100.092 14.3555 100.419 14.6268C100.746 14.8821 101.197 15.0098 101.773 15.0098C102.427 15.0098 103.003 14.8422 103.501 14.5071C103.999 14.156 104.357 13.7011 104.575 13.1426V12.0174Z" fill="#4C1D96"/>
<path d="M92.3349 17.3558L91.9147 15.9674C91.4633 16.3983 90.9107 16.7813 90.257 17.1164C89.6032 17.4356 88.8016 17.5952 87.8522 17.5952C85.891 17.5952 84.389 17.0047 83.3461 15.8237C82.3188 14.6427 81.8052 12.959 81.8052 10.7726C81.8052 8.53827 82.3033 6.84658 83.2994 5.6975C84.3111 4.53246 85.7898 3.94995 87.7354 3.94995C88.5293 3.94995 89.2375 4.06166 89.8601 4.28509C90.4827 4.49257 91.0508 4.80377 91.5644 5.21872V0H95.0199V17.3558H92.3349ZM91.5644 8.66595C91.1131 8.09141 90.6305 7.67646 90.1169 7.42111C89.6188 7.16576 89.0663 7.03809 88.4592 7.03809C86.3735 7.03809 85.3307 8.27494 85.3307 10.7486C85.3307 11.9616 85.5953 12.8872 86.1245 13.5256C86.6537 14.148 87.4319 14.4592 88.4592 14.4592C89.0818 14.4592 89.6499 14.3315 90.1636 14.0762C90.6928 13.8208 91.1597 13.4139 91.5644 12.8553V8.66595Z" fill="#4C1D96"/>
<path d="M74.9544 17.5952C72.8065 17.5952 71.1643 17.0127 70.0281 15.8477C68.8919 14.6667 68.3237 12.967 68.3237 10.7486C68.3237 8.54625 68.8841 6.86254 70.0047 5.6975C71.1254 4.53247 72.7286 3.94995 74.8143 3.94995C76.76 3.94995 78.2698 4.44469 79.3438 5.43417C80.4178 6.42365 80.9936 7.8201 81.0715 9.62351C81.087 10.0385 81.087 10.4215 81.0715 10.7726C81.0559 11.1077 81.0326 11.403 81.0014 11.6583H71.8726C72.0749 13.6852 73.1178 14.6986 75.0011 14.6986C76.3708 14.6986 77.2191 14.1719 77.546 13.1186H80.908C80.3166 16.103 78.332 17.5952 74.9544 17.5952ZM77.7795 9.52775C77.7483 8.68191 77.476 8.01959 76.9623 7.54081C76.4487 7.06203 75.7482 6.82264 74.861 6.82264C73.18 6.82264 72.1994 7.72434 71.9192 9.52775H77.7795Z" fill="#FA7415"/>
<path d="M63.5244 14.7465C62.5283 15.5764 61.3453 15.9913 59.9756 15.9913C58.03 15.9913 56.5513 15.4886 55.5396 14.4831C54.5278 13.4617 54.022 11.9695 54.022 10.0065C54.022 8.01161 54.5123 6.50345 55.4929 5.48205C56.4735 4.46065 57.921 3.94995 59.8355 3.94995C61.4076 3.94995 62.7617 4.43671 63.898 5.41023L64.2949 4.18934H66.9799V15.8955C66.9799 17.8905 66.4429 19.4066 65.3689 20.444C64.3104 21.4813 62.7617 22 60.7227 22C58.9016 22 57.4696 21.5851 56.4268 20.7552C55.3995 19.9413 54.8314 18.7682 54.7224 17.2361H58.2712C58.3024 17.8266 58.528 18.2974 58.9483 18.6485C59.3841 18.9996 59.9989 19.1752 60.7928 19.1752C61.7578 19.1752 62.4504 18.9119 62.8707 18.3852C63.3065 17.8745 63.5244 17.0446 63.5244 15.8955V14.7465ZM63.5244 8.59413C62.715 7.55677 61.7267 7.03809 60.5593 7.03809C59.5164 7.03809 58.7537 7.28546 58.2712 7.7802C57.7887 8.27494 57.5474 9.03301 57.5474 10.0544C57.5474 12.0493 58.5592 13.0468 60.5826 13.0468C61.7811 13.0468 62.7617 12.5361 63.5244 11.5147V8.59413Z" fill="#FA7415"/>
<path d="M40.5566 4.18934H43.2883L43.8253 5.79326C44.3545 5.20276 44.946 4.74792 45.5997 4.42873C46.269 4.10954 47.0706 3.94995 48.0045 3.94995C48.7205 3.94995 49.3664 4.07763 49.9423 4.33298C50.5338 4.57237 51.0319 4.91549 51.4366 5.36236C51.8568 5.80922 52.1759 6.34386 52.3938 6.96627C52.6273 7.58869 52.744 8.27494 52.744 9.02503V17.3558H49.2886V9.8629C49.2886 7.96374 48.4559 7.01415 46.7904 7.01415C46.2768 7.01415 45.7787 7.15779 45.2962 7.44506C44.8292 7.73232 44.4012 8.14727 44.0121 8.68989V17.3558H40.5566V4.18934Z" fill="#FA7415"/>
<path d="M26.9678 13.7171C26.9678 12.5521 27.3258 11.6424 28.0418 10.988C28.7733 10.3337 29.7928 10.0065 31.1003 10.0065H35.1161V8.88141C35.1161 7.5089 34.3612 6.82265 32.8513 6.82265C32.1198 6.82265 31.575 6.95032 31.217 7.20567C30.859 7.44506 30.6567 7.81213 30.61 8.30687H27.318C27.3491 6.87053 27.8472 5.78529 28.8122 5.05116C29.7773 4.31702 31.1781 3.95794 33.0148 3.9739C33.8553 3.9739 34.6102 4.07763 35.2795 4.28511C35.9644 4.47662 36.548 4.75591 37.0306 5.12297C37.5286 5.47408 37.91 5.90498 38.1746 6.41568C38.4392 6.91042 38.5715 7.46102 38.5715 8.06748V17.3558H35.8398L35.3262 15.8237C34.4701 17.0047 33.1704 17.5952 31.4272 17.5952C30.0574 17.5952 28.9679 17.2521 28.1585 16.5658C27.3647 15.8636 26.9678 14.9141 26.9678 13.7171ZM35.1161 12.0174H32.1743C31.6451 12.0174 31.2248 12.1531 30.9135 12.4244C30.6178 12.6957 30.4699 13.0628 30.4699 13.5256C30.4699 13.9884 30.6333 14.3555 30.9602 14.6268C31.2871 14.8821 31.7385 15.0098 32.3144 15.0098C32.9681 15.0098 33.544 14.8422 34.0421 14.5071C34.5402 14.156 34.8981 13.7011 35.1161 13.1426V12.0174Z" fill="#FA7415"/>
<path d="M18.7241 4.18934H21.5258L22.0628 5.79326C22.9812 4.56439 24.203 3.94995 25.7284 3.94995C25.8218 3.94995 25.9463 3.95793 26.1019 3.97389C26.2732 3.97389 26.4055 3.98985 26.4988 4.02177V7.3493C26.3743 7.31738 26.2031 7.29344 25.9852 7.27748C25.7673 7.26152 25.5805 7.25354 25.4249 7.25354C24.382 7.25354 23.5804 7.56475 23.0201 8.18717C22.4597 8.79362 22.1796 9.68735 22.1796 10.8683V17.3558H18.7241V4.18934Z" fill="#FA7415"/>
<path d="M5.86636 1.06006C6.4813 1.21953 8.46805 2.38344 8.90922 2.8629C9.64534 3.66264 9.32868 4.47404 8.54255 5.12539C7.3602 5.68175 5.97883 4.78672 5.57285 3.6232C5.219 2.60919 5.43906 2.00704 5.86636 1.06006Z" fill="#4C1D96"/>
<path fill-rule="evenodd" clip-rule="evenodd" d="M10.5619 4.50244C15.3399 4.51348 17.808 8.00921 17.0261 12.4822C16.2572 16.8802 13.154 17.6762 9.28661 17.6183C7.05318 17.5016 3.85049 17.6708 2.13648 16.1949C-1.44432 13.1112 -0.518427 5.33623 4.87225 4.82134C5.01546 4.80766 5.15864 4.79527 5.30169 4.78251C5.59229 5.16456 5.96272 5.48632 6.37662 5.71437C7.09482 6.11005 8.01222 6.25546 8.88668 5.84405L8.9789 5.80056L9.05726 5.73559C9.44589 5.41359 9.80557 5.00328 9.99295 4.50891C10.1826 4.50584 10.3723 4.50358 10.5619 4.50244ZM12.5009 8.35902C11.6374 7.37119 10.3143 7.36424 9.10951 7.5219C8.07221 7.60068 5.24242 7.61705 4.57028 8.38361C3.6273 9.45924 3.63193 13.0552 4.8247 14.0314C5.38168 14.4868 7.39976 14.4535 8.25322 14.5274C9.42219 14.6131 11.3966 14.8623 12.3155 13.9877C13.5896 12.7749 13.6615 9.68673 12.5009 8.35902Z" fill="#FA7415"/>
</g>
<defs>
<clipPath id="clip0_106_297">
<rect width="130" height="22" fill="white"/>
</clipPath>
</defs>
</svg>
